<?xml version="1.0" standalone="no"?>
<!DOCTYPE svg PUBLIC "-//W3C//DTD SVG 20010904//EN"
 "http://www.w3.org/TR/2001/REC-SVG-20010904/DTD/svg10.dtd">
<svg version="1.0" xmlns="http://www.w3.org/2000/svg"
 width="1423.000000pt" height="1423.000000pt" viewBox="0 0 1423.000000 1423.000000"
 preserveAspectRatio="xMidYMid meet">
<metadata>
Created by potrace 1.11, written by Peter Selinger 2001-2013
</metadata>
<g transform="translate(0.000000,1423.000000) scale(0.100000,-0.100000)"
fill="#000000" stroke="none">
<path d="M8492 13443 c-9 -7 -25 -13 -34 -13 -10 0 -18 -5 -18 -10 0 -6 -7
-13 -16 -17 -9 -3 -47 -37 -85 -74 -49 -49 -69 -76 -69 -94 0 -14 -4 -25 -10
-25 -5 0 -10 -6 -10 -12 0 -7 -9 -24 -20 -38 -11 -14 -20 -35 -20 -47 0 -12
-5 -25 -10 -28 -6 -4 -8 -10 -5 -15 3 -4 -1 -13 -9 -19 -9 -7 -13 -26 -10 -49
2 -28 -2 -41 -17 -53 -17 -13 -21 -27 -21 -77 0 -34 -3 -64 -8 -67 -4 -2 -6
-29 -5 -60 1 -30 -2 -55 -6 -55 -4 0 -6 -15 -3 -32 15 -98 13 -105 -31 -88
-23 9 -25 14 -20 44 6 30 4 34 -19 40 -19 5 -26 13 -26 31 0 14 -6 25 -13 25
-15 0 -40 37 -32 50 3 4 -1 15 -9 23 -8 7 -16 25 -18 38 -2 16 -9 23 -20 21
-10 -1 -25 9 -35 25 -36 55 -69 82 -99 78 -21 -2 -34 5 -53 26 -14 16 -31 29
-38 29 -7 0 -13 5 -13 11 0 7 -10 9 -25 7 -13 -3 -26 -1 -28 5 -1 5 -17 11
-34 12 -17 1 -44 12 -60 25 -17 12 -46 23 -64 25 -19 2 -47 7 -63 11 -17 4
-31 2 -35 -5 -5 -8 -14 -5 -29 9 -11 11 -25 20 -31 20 -5 0 -11 6 -14 13 -3 9
-7 9 -20 -1 -12 -10 -21 -11 -36 -3 -13 7 -22 8 -26 1 -3 -5 -19 -10 -35 -10
-42 0 -71 -44 -61 -91 4 -19 6 -43 3 -54 -2 -11 -4 -34 -3 -52 0 -18 -4 -35
-9 -38 -14 -9 -1 -77 18 -91 14 -10 13 -13 -5 -29 -18 -15 -20 -22 -11 -44 19
-50 19 -89 -2 -126 -25 -45 -25 -44 8 -42 19 1 27 -3 27 -15 0 -9 4 -20 8 -24
17 -17 7 -36 -17 -30 -15 4 -28 0 -36 -8 -13 -16 -72 -18 -81 -3 -4 6 -15 7
-25 2 -35 -15 -68 -16 -91 -4 -18 10 -26 10 -35 1 -7 -7 -22 -12 -34 -12 -13
0 -26 -5 -29 -10 -5 -8 -11 -7 -21 1 -9 8 -18 8 -26 2 -7 -6 -40 -9 -73 -8
-33 1 -67 -2 -76 -6 -10 -5 -24 0 -42 17 -27 25 -67 33 -67 12 0 -9 -3 -9 -12
0 -15 15 -58 16 -58 1 0 -8 -4 -8 -14 0 -9 7 -17 8 -20 2 -3 -5 -19 -8 -36 -7
-16 1 -31 -3 -34 -10 -3 -7 -20 -15 -38 -19 -18 -4 -45 -16 -60 -26 -14 -11
-33 -19 -41 -19 -9 0 -24 -11 -35 -25 -12 -15 -30 -25 -46 -25 -15 0 -29 -6
-32 -14 -3 -8 -20 -20 -37 -26 -18 -7 -42 -17 -53 -22 -22 -10 -94 8 -94 23 0
9 -77 5 -86 -4 -4 -3 -15 -2 -25 3 -12 7 -20 7 -24 0 -3 -5 -17 -10 -31 -10
-13 0 -23 -3 -23 -7 4 -24 -3 -35 -17 -29 -9 3 -28 -3 -44 -14 -15 -11 -35
-20 -43 -20 -9 0 -17 -5 -19 -11 -2 -5 -19 -12 -38 -15 -44 -7 -72 -22 -65
-35 4 -5 -9 -9 -27 -9 -25 0 -42 -9 -65 -34 -18 -18 -48 -41 -68 -51 -50 -23
-97 -76 -83 -92 13 -16 3 -43 -15 -43 -8 0 -22 10 -33 21 -16 18 -62 43 -72
39 -2 -1 -11 7 -20 17 -21 23 -77 47 -91 39 -6 -4 -28 11 -51 34 -22 22 -46
40 -54 40 -8 0 -18 5 -21 11 -9 14 -86 3 -97 -13 -4 -7 -8 -9 -8 -4 0 6 -5 5
-12 -2 -7 -7 -26 -12 -43 -12 -31 0 -84 -17 -123 -38 -12 -7 -27 -10 -32 -7
-6 4 -27 -10 -46 -29 -20 -20 -40 -36 -45 -36 -5 0 -9 -3 -9 -7 0 -5 -7 -17
-16 -28 -13 -17 -16 -18 -25 -5 -8 11 -12 12 -16 3 -2 -7 -11 -13 -18 -13 -7
0 -15 -9 -18 -21 -3 -11 -15 -23 -26 -26 -12 -3 -21 -9 -21 -14 0 -5 -8 -9
-17 -9 -10 0 -27 -14 -38 -31 -11 -17 -29 -34 -41 -39 -11 -5 -27 -22 -35 -38
-13 -26 -44 -56 -126 -120 -12 -9 -22 -21 -23 -27 0 -5 -15 -26 -33 -45 -18
-19 -39 -50 -46 -67 -7 -18 -17 -33 -21 -33 -4 0 -7 -8 -7 -17 0 -26 -14 -63
-23 -63 -7 0 -19 -27 -24 -55 -1 -5 2 -18 7 -29 6 -12 5 -21 -1 -25 -11 -7
-11 -126 1 -137 4 -4 7 -25 7 -46 0 -21 5 -38 10 -38 6 0 10 -11 10 -24 0 -14
4 -27 9 -30 5 -4 8 -14 6 -24 -2 -16 30 -91 44 -102 3 -3 7 -20 8 -38 2 -32
22 -62 42 -62 11 0 15 -13 12 -36 -1 -7 5 -14 13 -17 8 -3 17 -19 21 -36 4
-17 13 -31 21 -31 8 0 14 -9 14 -20 0 -11 3 -19 8 -19 23 4 38 -4 47 -23 6
-13 20 -24 33 -26 12 -2 34 -14 49 -28 14 -13 31 -24 36 -24 6 0 20 -9 32 -20
18 -17 45 -27 82 -29 6 -1 25 -13 42 -27 18 -15 38 -23 47 -20 8 3 17 -1 20
-9 4 -9 19 -15 40 -15 19 0 34 -4 34 -8 0 -5 14 -9 31 -10 17 0 36 -5 43 -11
7 -6 16 -8 19 -4 4 3 7 -4 7 -17 0 -13 7 -31 16 -41 14 -16 19 -16 38 -4 19
13 24 13 37 -3 9 -10 14 -27 12 -38 -1 -10 -6 -37 -9 -59 -4 -22 -15 -51 -25
-64 -20 -25 -23 -76 -6 -99 7 -9 6 -17 -1 -24 -8 -8 -8 -17 -1 -30 7 -14 6
-18 -5 -18 -8 0 -16 -10 -18 -22 -4 -26 11 -68 24 -68 4 0 8 -14 8 -30 0 -19
10 -41 25 -58 15 -15 36 -44 47 -64 12 -21 26 -38 31 -38 14 0 87 -64 87 -77
0 -7 9 -13 19 -13 10 0 21 -7 25 -15 3 -8 12 -15 21 -15 8 0 15 -4 15 -10 0
-5 9 -10 19 -10 11 0 23 -5 27 -11 3 -6 14 -9 24 -6 19 5 50 -9 50 -23 0 -6
-6 -10 -14 -10 -8 0 -17 -7 -20 -16 -7 -18 14 -42 32 -36 7 2 19 -1 26 -7 8
-7 50 -12 95 -12 45 0 81 -4 81 -9 0 -5 27 -9 60 -9 33 1 60 5 60 10 0 11 99
9 106 -2 3 -6 30 -9 61 -8 35 2 57 -2 62 -10 6 -10 12 -9 25 4 14 14 20 15 44
3 15 -8 42 -13 61 -13 23 1 42 -7 63 -27 17 -15 34 -28 39 -28 5 0 9 -4 9 -10
0 -5 16 -10 35 -10 19 0 35 -4 35 -10 0 -5 14 -10 31 -10 17 0 39 -5 50 -11
18 -9 43 -15 114 -24 17 -2 30 -4 30 -5 0 -1 7 -3 16 -5 9 -1 33 -11 53 -20
20 -9 42 -15 51 -12 8 4 20 0 28 -7 7 -8 35 -13 66 -13 65 0 90 -19 69 -52 -7
-11 -16 -21 -21 -21 -4 0 0 -14 8 -30 13 -26 14 -31 1 -36 -9 -4 -13 -18 -11
-42 1 -20 -2 -45 -7 -55 -12 -23 -16 -87 -6 -93 4 -3 6 -15 3 -27 -4 -16 2
-30 19 -46 20 -19 23 -27 14 -38 -6 -8 -7 -13 -2 -12 27 5 46 -4 56 -26 6 -13
14 -23 17 -21 8 5 73 -24 95 -43 14 -12 21 -13 38 -2 11 7 21 11 21 9 15 -31
28 -43 46 -44 12 -1 30 -12 41 -24 14 -16 24 -20 32 -13 18 13 75 15 83 3 3
-5 17 -10 31 -10 13 0 33 -6 44 -12 14 -9 23 -10 28 -2 4 5 26 11 48 11 30 1
56 12 88 35 26 18 42 34 37 36 -14 5 -14 32 -2 32 6 0 22 -16 36 -35 22 -28
29 -32 40 -21 7 7 15 23 17 35 1 12 8 23 13 24 19 3 56 69 50 88 -7 20 9 27
20 9 3 -5 11 -10 17 -10 7 0 7 4 -1 14 -8 10 -8 23 3 54 8 22 12 43 8 46 -11
11 -12 46 -2 46 6 0 10 11 10 25 0 14 5 25 10 25 6 0 10 7 10 15 0 7 7 18 16
23 9 5 17 21 17 36 0 25 23 36 41 19 23 -23 96 12 80 39 -4 7 -9 6 -15 -3 -4
-7 -11 -10 -16 -6 -8 9 20 60 36 65 6 2 11 -6 11 -18 0 -12 7 -28 15 -36 12
-13 18 -11 42 14 28 29 57 33 46 6 -3 -9 2 -14 13 -15 63 -3 107 1 118 11 10
8 15 8 18 0 6 -18 121 -11 141 9 6 6 17 11 23 11 7 0 19 8 26 18 7 10 25 27
40 36 21 14 27 24 24 42 -3 13 4 34 15 48 10 13 19 34 19 45 0 17 6 21 35 21
19 0 35 5 35 11 0 6 6 9 13 6 6 -2 29 4 49 14 21 11 43 19 51 19 8 0 22 8 31
19 9 10 27 19 40 19 13 0 39 7 56 16 18 9 40 16 49 16 22 0 41 -47 38 -93 -3
-26 1 -41 12 -47 15 -9 14 -11 -9 -14 -12 -1 -12 -7 1 -46 6 -16 11 -33 11
-37 1 -19 40 -62 52 -57 8 3 17 1 21 -5 3 -6 17 -11 30 -11 13 0 27 -5 30 -10
7 -11 164 -7 223 6 19 3 58 20 88 36 40 21 76 31 132 36 104 10 137 9 137 -3
1 -18 20 -43 35 -47 20 -4 39 -22 33 -30 -2 -5 7 -8 21 -8 18 0 44 -18 87 -60
56 -55 88 -80 60 -46 -9 10 -8 15 3 19 16 6 28 -6 41 -38 5 -13 9 -15 12 -7 6
15 43 16 43 1 0 -5 -4 -7 -10 -4 -5 3 -10 2 -10 -4 0 -21 22 -22 39 -2 10 12
21 21 25 21 13 0 5 -28 -14 -45 -25 -22 -25 -34 -2 -42 9 -4 25 -15 34 -25 9
-11 19 -18 22 -16 9 5 66 -45 66 -58 0 -16 23 -34 51 -40 45 -10 79 -12 84 -3
3 4 17 2 31 -6 17 -8 37 -10 61 -5 19 5 43 7 53 5 10 -2 26 3 37 10 10 8 26
15 36 15 20 0 47 22 47 38 0 5 9 17 20 27 11 10 17 22 14 26 -3 5 0 9 5 9 6 0
11 14 11 30 0 17 5 30 10 30 6 0 10 18 10 39 0 22 4 42 9 46 5 3 9 20 9 38 -1
17 2 41 6 52 14 37 15 44 6 47 -5 2 -10 18 -12 36 -1 17 -5 32 -8 32 -9 0 -30
63 -30 88 0 12 -5 22 -11 22 -5 0 -7 5 -4 11 4 6 -1 13 -12 15 -18 5 -29 20
-55 77 -7 15 -16 28 -20 28 -4 1 -12 2 -16 3 -5 0 -31 22 -58 48 -27 26 -62
57 -79 69 -16 13 -32 26 -35 29 -12 13 -79 60 -86 60 -4 0 -20 12 -36 27 -18
17 -40 27 -65 28 -21 2 -56 7 -78 12 -22 5 -57 8 -77 7 -35 -3 -43 3 -39 29 1
4 -8 2 -19 -5 -15 -10 -22 -10 -32 0 -6 6 -22 12 -34 12 -13 0 -25 4 -28 8 -8
13 -101 9 -117 -5 -8 -6 -22 -7 -34 -2 -30 12 -35 11 -35 -7 0 -13 -7 -15 -36
-11 -20 3 -41 13 -48 21 -7 10 -16 13 -25 7 -9 -6 -10 -10 -2 -16 9 -5 9 -10
0 -21 -17 -21 -44 -17 -62 9 -15 21 -16 21 -17 2 -1 -29 -24 -55 -49 -55 -11
0 -21 -4 -21 -10 0 -5 -4 -10 -10 -10 -17 0 -11 28 10 43 22 15 17 27 -12 27
-10 0 -18 -7 -18 -15 0 -14 -11 -19 -37 -16 -6 1 -14 -8 -18 -19 -4 -11 -10
-18 -13 -16 -4 2 -26 1 -49 -3 -51 -10 -58 -5 -57 39 1 50 13 73 29 60 10 -8
21 -3 44 22 17 18 31 41 31 51 0 9 6 17 13 17 10 0 49 69 51 92 2 12 16 21 16
10 0 -7 5 -12 10 -12 6 0 10 11 10 24 0 14 10 32 22 40 12 9 18 16 13 16 -4 0
0 10 11 23 36 41 64 86 64 102 0 9 7 18 15 21 8 4 13 10 10 14 -9 15 6 38 30
44 13 3 27 16 30 27 4 12 18 37 31 57 14 19 27 47 31 61 3 14 21 47 40 73 18
26 33 53 33 59 0 6 9 22 20 36 11 14 18 29 15 33 -2 4 8 13 23 21 15 7 44 30
65 51 41 40 52 45 62 27 4 -6 13 -8 21 -5 7 3 16 1 20 -5 7 -13 222 -10 230 3
3 5 12 7 19 4 7 -2 22 4 33 15 23 21 52 25 52 8 0 -6 7 -4 15 4 8 9 32 18 54
22 26 4 38 11 35 19 -5 12 53 36 87 36 8 0 34 18 58 40 25 22 50 40 58 40 7 0
13 3 13 8 0 4 22 17 50 30 56 26 77 65 46 87 -32 24 -19 27 39 10 17 -5 23 1
33 29 8 20 20 36 27 36 15 0 48 43 51 67 4 22 53 93 69 100 8 3 15 9 15 14 0
5 12 23 27 40 15 16 29 42 31 57 2 14 7 32 13 38 5 6 6 14 2 17 -3 4 0 7 9 7
24 0 61 46 55 70 -3 13 0 20 9 20 8 0 14 6 14 13 0 8 11 24 25 37 14 13 25 32
25 42 0 20 22 48 38 48 5 0 9 13 9 30 0 35 11 50 22 31 11 -17 17 -5 19 36 3
37 38 118 73 163 29 39 110 133 119 140 4 3 14 19 23 36 9 17 30 37 47 44 16
7 31 16 31 21 1 5 2 13 3 18 0 5 4 13 9 17 4 4 7 14 7 22 0 26 43 67 67 64 36
-5 72 25 78 66 3 21 10 45 16 55 7 13 5 17 -11 17 -21 0 -38 40 -25 59 3 6 2
11 -3 11 -5 0 -7 15 -5 33 4 30 3 31 -11 13 -19 -24 -33 -13 -38 29 -3 32 -15
35 -67 19 -19 -6 -23 -4 -19 8 4 8 -2 20 -13 26 -13 8 -19 24 -19 46 l0 34
-37 -18 c-39 -19 -53 -18 -53 4 0 25 -105 44 -137 23 -6 -4 -14 -3 -18 2 -12
20 -113 1 -157 -30 -18 -13 -28 -15 -30 -7 -3 7 -9 8 -19 3 -8 -5 -25 -11 -38
-13 -13 -2 -36 -9 -51 -17 -15 -8 -47 -15 -71 -16 -24 -1 -48 -5 -54 -8 -5 -2
-25 -6 -43 -8 -19 -2 -41 -10 -49 -18 -8 -8 -25 -15 -38 -15 -12 0 -36 -12
-52 -27 -16 -16 -39 -27 -51 -27 -14 1 -22 -5 -22 -15 0 -9 -16 -25 -36 -36
-19 -10 -42 -32 -51 -48 -8 -16 -17 -26 -20 -23 -3 3 -25 -8 -49 -25 -24 -17
-49 -27 -54 -24 -6 3 -10 2 -10 -3 0 -5 -18 -21 -40 -36 -22 -14 -39 -30 -38
-34 5 -14 -37 -52 -57 -52 -15 0 -25 -10 -34 -35 -7 -19 -17 -35 -23 -35 -5 0
-8 -6 -5 -14 4 -9 -5 -19 -24 -26 -18 -8 -28 -18 -25 -26 3 -7 -9 -25 -25 -39
-34 -28 -49 -32 -49 -11 0 8 -5 16 -10 18 -14 4 -21 41 -24 138 -2 65 -8 97
-26 134 -16 33 -20 51 -13 53 7 3 9 11 6 19 -3 8 0 14 6 14 30 0 2 49 -45 76
-10 7 -18 19 -16 29 2 9 -2 23 -8 30 -8 10 -8 19 -1 33 8 15 6 23 -9 37 -11
10 -18 20 -15 23 6 7 -43 32 -62 32 -25 0 -38 23 -40 70 -2 36 -8 50 -30 67
-22 18 -25 25 -15 35 18 18 15 38 -7 38 -29 0 -90 42 -91 62 0 9 -11 28 -24
41 -13 13 -29 33 -35 45 -6 12 -18 22 -25 22 -7 0 -21 9 -31 20 -10 11 -25 19
-34 18 -11 -2 -17 6 -19 25 -3 24 -7 27 -40 27 -26 0 -46 8 -64 25 -15 14 -35
25 -45 25 -13 0 -14 3 -5 12 18 18 15 28 -8 28 -11 0 -23 6 -26 13 -3 8 -20
20 -39 27 -19 8 -35 17 -35 22 0 4 -3 7 -7 6 -11 -4 -83 42 -83 52 0 4 -8 6
-18 3 -12 -3 -25 4 -36 22 -9 14 -20 24 -24 22 -4 -2 -33 -1 -65 2 -41 5 -63
3 -75 -6z m1425 -2501 c6 -25 2 -32 -20 -36 -8 -1 -31 -14 -51 -29 l-36 -28
-10 26 c-5 14 -15 24 -22 23 -7 -2 -13 4 -13 12 0 8 9 16 20 18 11 2 27 6 35
9 8 3 19 5 23 4 4 0 10 4 12 11 3 7 17 13 31 13 18 0 27 -7 31 -23z"/>
<path d="M11216 12261 c-7 -10 3 -41 13 -41 17 1 31 18 25 33 -7 18 -29 23
-38 8z"/>
<path d="M10790 11330 c-8 -4 -25 -12 -37 -18 -13 -7 -29 -12 -38 -12 -8 0
-17 -11 -21 -25 -3 -14 -11 -25 -18 -24 -31 4 -56 -2 -56 -14 0 -24 45 -57 77
-57 37 0 83 -22 103 -50 8 -11 22 -20 32 -20 9 0 21 -7 26 -15 4 -9 18 -17 30
-18 12 -1 22 -5 22 -9 0 -4 10 -8 23 -8 13 0 33 -9 45 -20 12 -11 30 -20 41
-20 11 0 24 -7 29 -17 6 -10 16 -14 26 -10 9 4 16 2 16 -4 0 -6 7 -17 15 -25
8 -9 15 -13 15 -10 0 8 124 -56 132 -68 4 -6 8 -8 8 -3 0 14 105 -65 135 -102
17 -21 36 -36 43 -33 6 2 12 -1 12 -7 0 -6 10 -11 23 -11 13 0 34 -11 47 -25
13 -14 29 -25 37 -25 7 0 13 -3 13 -8 0 -4 18 -18 41 -32 37 -23 84 -81 84
-105 0 -5 9 -14 20 -20 11 -5 20 -14 20 -20 1 -5 10 -29 20 -52 14 -32 26 -43
42 -43 12 0 24 -6 26 -12 3 -8 6 -6 6 5 1 16 21 26 21 10 0 -5 13 -21 28 -38
33 -35 45 -62 32 -70 -15 -9 39 -58 56 -51 10 4 18 -1 21 -13 3 -11 13 -21 23
-24 9 -2 20 -17 24 -33 4 -15 15 -35 25 -43 10 -9 26 -28 35 -43 17 -26 17
-28 -2 -53 -20 -25 -20 -55 0 -55 5 0 7 -8 3 -19 -4 -13 4 -26 26 -45 18 -16
29 -32 25 -41 -3 -8 2 -19 11 -24 10 -5 36 -42 59 -82 28 -50 51 -78 72 -89
24 -11 32 -22 32 -43 0 -20 6 -30 19 -34 13 -3 18 -12 16 -25 -3 -13 6 -30 25
-46 22 -20 30 -35 30 -60 0 -18 5 -43 11 -54 6 -11 12 -32 14 -46 3 -33 32
-54 55 -42 11 6 23 5 34 -3 14 -11 15 -15 0 -42 -10 -19 -11 -31 -5 -33 6 -2
11 -14 11 -26 0 -15 9 -27 25 -34 25 -12 32 -26 17 -36 -14 -8 -7 -49 9 -55 8
-3 15 -23 17 -43 1 -20 9 -50 17 -65 18 -33 19 -53 4 -53 -6 0 -9 -6 -6 -12 2
-7 14 -13 28 -13 21 0 24 -6 27 -45 5 -54 20 -68 45 -39 9 12 17 20 18 18 1
-2 3 -22 5 -44 8 -102 19 -140 42 -150 26 -11 27 -18 7 -35 -22 -18 -19 -28
20 -66 34 -33 45 -67 25 -79 -13 -8 13 -35 33 -35 7 0 14 -7 14 -15 0 -8 -4
-15 -9 -15 -4 0 -8 -7 -8 -15 0 -8 7 -15 16 -15 11 0 15 -6 11 -20 -3 -11 -2
-22 3 -25 8 -5 -2 -63 -13 -82 -3 -5 5 -17 17 -26 17 -13 22 -25 18 -42 -2
-14 1 -32 8 -40 7 -9 10 -18 7 -22 -4 -3 0 -14 7 -25 10 -14 12 -29 5 -51 -6
-23 -5 -35 6 -47 13 -14 13 -19 -1 -38 -11 -16 -13 -27 -6 -35 6 -7 9 -29 8
-50 -1 -32 1 -37 16 -34 24 7 23 -9 -3 -41 -12 -16 -16 -28 -10 -30 6 -2 11
-12 11 -23 0 -10 3 -19 8 -19 4 0 8 -32 9 -70 2 -46 -1 -70 -8 -70 -8 0 -8 -4
-1 -13 6 -7 11 -43 11 -80 -1 -36 2 -71 6 -78 4 -6 10 -28 12 -48 3 -20 8 -38
12 -41 4 -3 6 -19 5 -37 -1 -31 7 -55 20 -54 19 3 18 -1 -3 -15 -18 -13 -20
-18 -10 -25 11 -6 11 -11 2 -20 -7 -7 -9 -18 -4 -28 5 -9 11 -32 14 -52 2 -20
8 -42 12 -49 8 -14 8 -244 0 -271 -4 -11 -14 -19 -23 -19 -12 0 -13 -3 -4 -12
17 -17 15 -31 -4 -24 -10 4 -14 2 -11 -6 2 -7 10 -12 16 -11 14 4 14 -3 1 -28
-7 -13 -7 -19 0 -19 5 0 10 -13 10 -30 0 -20 -5 -30 -15 -30 -12 0 -13 -4 -5
-19 16 -31 12 -51 -10 -51 -11 0 -20 5 -20 10 0 6 -6 10 -12 10 -7 0 -1 -11
12 -24 22 -20 27 -22 41 -10 8 8 19 14 22 14 13 0 7 -38 -8 -50 -8 -7 -15 -16
-15 -21 0 -5 7 -9 15 -9 18 0 19 -12 4 -27 -8 -8 -8 -13 0 -17 6 -4 11 -17 11
-29 -1 -28 -25 -61 -39 -52 -6 3 -11 -1 -11 -10 0 -8 -6 -18 -14 -21 -23 -9
-47 -80 -36 -108 9 -26 30 -44 30 -27 0 6 6 11 14 11 7 0 16 10 20 22 8 33 26
10 19 -25 -7 -33 -41 -56 -54 -36 -9 15 -9 15 -13 -19 -2 -18 1 -21 17 -16 16
5 19 3 14 -11 -4 -9 -7 -19 -7 -21 0 -3 -5 -2 -10 1 -9 6 -35 -41 -32 -57 1
-5 -3 -8 -8 -8 -16 0 -11 -33 9 -63 18 -29 18 -60 -2 -84 -5 -7 -6 -13 -2 -13
4 0 2 -6 -4 -14 -9 -11 -9 -16 0 -21 8 -6 8 -10 -2 -15 -10 -7 -10 -11 1 -24
7 -9 10 -19 6 -23 -3 -4 4 -17 16 -30 12 -13 16 -23 9 -23 -6 0 -11 -6 -10
-12 4 -35 -3 -59 -26 -82 -25 -25 -36 -86 -15 -86 7 0 7 -6 0 -19 -5 -11 -10
-31 -10 -45 0 -14 -4 -27 -9 -30 -13 -8 -19 -52 -10 -69 6 -10 4 -17 -7 -21
-9 -3 -12 -11 -8 -18 4 -7 9 -25 11 -40 2 -23 -1 -28 -18 -28 -24 0 -48 -26
-49 -52 0 -9 -7 -24 -16 -33 -13 -12 -14 -18 -4 -31 13 -14 8 -28 -11 -30 -5
-1 -11 -2 -14 -3 -2 0 5 -18 16 -38 14 -24 17 -39 10 -41 -6 -2 -11 -10 -11
-19 0 -11 -7 -13 -31 -8 l-31 7 23 -31 23 -31 -21 -19 c-11 -10 -19 -29 -18
-42 1 -13 -1 -26 -6 -29 -4 -3 -9 -19 -12 -35 -4 -32 -13 -60 -28 -88 -6 -11
-6 -17 1 -17 5 0 10 -13 10 -29 0 -20 -6 -30 -20 -34 -14 -4 -18 -11 -15 -28
3 -13 -3 -31 -12 -41 -9 -10 -16 -31 -17 -48 -1 -16 -4 -30 -8 -30 -5 0 -8
-11 -8 -25 0 -14 -5 -25 -11 -25 -6 0 -8 -7 -5 -16 3 -8 -1 -25 -9 -38 -8 -12
-16 -46 -17 -74 -1 -29 -5 -52 -9 -52 -7 0 -22 -45 -23 -70 0 -8 -13 -39 -29
-69 -20 -40 -25 -56 -16 -62 13 -8 3 -57 -27 -126 -8 -17 -14 -36 -14 -42 0
-6 -4 -11 -9 -11 -8 0 -19 -25 -27 -65 -2 -11 -13 -31 -24 -45 -17 -21 -61
-104 -65 -120 -1 -3 -9 -22 -18 -44 -9 -21 -17 -42 -17 -46 0 -5 -4 -10 -8
-12 -5 -1 -15 -16 -23 -32 -18 -37 -39 -45 -39 -15 0 22 -1 22 -17 6 -15 -15
-16 -19 -4 -26 11 -7 11 -9 0 -13 -12 -4 -12 -8 0 -22 10 -12 11 -20 4 -27 -8
-8 -13 -7 -17 0 -4 6 -14 11 -22 11 -8 0 -13 -4 -9 -9 3 -6 -3 -15 -14 -21
-12 -6 -18 -18 -16 -29 2 -11 -3 -22 -11 -25 -8 -3 -14 -10 -14 -17 0 -6 -11
-24 -25 -41 -14 -16 -25 -38 -25 -49 0 -10 -3 -19 -7 -19 -13 0 -43 -60 -43
-85 0 -14 -9 -29 -20 -35 -11 -6 -20 -20 -20 -30 0 -11 -5 -20 -11 -20 -5 0
-7 -5 -4 -10 4 -6 -8 -24 -25 -40 -18 -17 -29 -30 -26 -30 3 0 -3 -16 -14 -35
-11 -20 -20 -40 -20 -46 0 -6 -16 -33 -35 -59 -19 -26 -35 -52 -35 -58 0 -16
-100 -113 -110 -107 -6 3 -10 0 -10 -7 0 -14 -90 -108 -103 -108 -4 0 -20 -11
-35 -25 -15 -14 -31 -25 -36 -25 -5 0 -6 3 -3 7 9 9 -22 43 -40 43 -16 0 -17
-17 -1 -22 7 -3 9 -11 3 -24 -4 -10 -9 -28 -10 -39 -3 -32 -16 -55 -32 -55
-17 0 -83 -67 -83 -84 -1 -22 -50 -58 -71 -53 -18 5 -20 2 -14 -24 4 -19 3
-29 -5 -29 -14 0 -40 -25 -40 -39 0 -6 -7 -11 -16 -11 -11 0 -14 -6 -9 -20 5
-14 2 -20 -9 -20 -9 0 -16 -7 -16 -15 0 -8 -6 -15 -14 -15 -8 0 -24 -14 -36
-31 -13 -18 -28 -28 -36 -25 -8 3 -20 9 -28 12 -11 4 -13 0 -9 -14 7 -27 -72
-102 -106 -102 -13 0 -34 -11 -47 -25 -24 -26 -53 -32 -70 -15 -15 15 -93 -30
-100 -57 -4 -14 -14 -23 -25 -23 -10 0 -19 -4 -19 -9 0 -5 -8 -11 -17 -13 -10
-2 -18 -12 -18 -23 0 -12 -8 -21 -20 -23 -11 -2 -28 -11 -37 -19 -10 -9 -38
-15 -70 -16 -35 0 -58 -5 -68 -16 -8 -9 -29 -24 -47 -34 -29 -16 -32 -16 -41
-1 -5 9 -15 14 -21 10 -6 -4 -9 -11 -7 -14 2 -4 -4 -19 -14 -32 -15 -20 -21
-23 -31 -13 -26 26 -39 14 -39 -33 0 -25 -4 -43 -9 -39 -5 3 -12 1 -16 -5 -10
-16 -35 -12 -29 5 5 12 -5 15 -54 15 -52 0 -60 -3 -65 -21 -3 -12 -10 -18 -15
-15 -5 3 -24 0 -41 -7 -23 -8 -34 -20 -38 -40 -4 -21 -10 -27 -24 -24 -12 3
-21 -4 -29 -23 -8 -19 -19 -28 -31 -27 -10 1 -19 5 -19 9 0 4 -17 8 -38 8 -34
0 -39 -3 -51 -35 -11 -32 -16 -35 -47 -33 -19 1 -34 5 -34 9 0 10 -39 18 -45
9 -3 -5 0 -10 7 -12 7 -3 8 -9 2 -19 -5 -8 -9 -23 -9 -34 0 -16 -8 -21 -37
-23 -21 -2 -38 -8 -38 -14 0 -5 -7 -8 -15 -4 -8 3 -15 1 -15 -4 0 -6 -9 -10
-20 -10 -11 0 -20 -4 -20 -8 0 -9 -63 -36 -77 -34 -4 1 -8 10 -8 20 0 9 -6 16
-14 14 -8 -2 -18 3 -22 10 -5 7 -17 14 -29 14 -20 1 -26 -7 -13 -20 4 -4 8
-27 8 -51 1 -36 -2 -46 -18 -51 -10 -3 -21 -3 -24 0 -4 3 -14 -1 -23 -9 -15
-14 -25 -14 -66 -4 -27 6 -53 16 -59 20 -5 5 -26 9 -46 9 -29 0 -38 -4 -42
-21 -3 -11 -15 -23 -26 -26 -12 -3 -21 -9 -21 -13 0 -4 -12 -12 -26 -18 -20
-10 -29 -9 -46 2 -11 8 -27 12 -35 9 -9 -3 -27 -6 -41 -7 -24 -1 -46 -26 -23
-26 6 0 11 -4 11 -10 0 -21 -39 -10 -42 12 -2 12 -9 23 -16 26 -7 2 -13 -2
-11 -9 3 -25 -1 -39 -11 -39 -5 0 -10 9 -10 20 0 26 -11 25 -40 -2 -18 -17
-34 -21 -76 -20 -37 1 -54 -3 -58 -13 -3 -8 -12 -12 -21 -9 -8 3 -23 3 -32 -2
-25 -11 -103 -14 -103 -4 0 4 -15 0 -33 -9 -21 -10 -52 -16 -83 -15 -33 2 -55
-3 -67 -14 -16 -14 -19 -14 -33 6 -17 25 -44 29 -44 7 0 -18 -46 -21 -53 -2
-7 18 -43 -6 -39 -27 4 -22 -10 -20 -31 4 -10 13 -29 20 -50 20 -18 0 -38 5
-45 12 -15 15 -83 11 -119 -7 -33 -17 -69 -19 -78 -5 -4 6 -12 5 -21 -4 -8 -9
-21 -13 -30 -9 -8 3 -21 -2 -28 -12 -10 -14 -17 -15 -32 -7 -11 6 -26 7 -34 3
-24 -12 -65 -7 -62 7 3 15 -22 16 -47 0 -15 -9 -23 -9 -36 2 -23 19 -85 40
-85 29 0 -5 -22 -6 -49 -3 -31 3 -52 1 -56 -6 -5 -8 -11 -8 -20 0 -9 7 -16 6
-25 -5 -15 -18 -31 -20 -28 -3 2 7 -6 13 -17 13 -11 0 -20 -6 -20 -14 0 -10
-13 -15 -42 -16 -24 -1 -43 2 -43 7 0 4 -16 8 -35 8 -25 0 -35 -4 -35 -16 0
-8 -5 -12 -11 -9 -6 4 -8 13 -5 20 8 22 -19 38 -41 24 -15 -9 -25 -8 -49 4
-40 21 -113 16 -130 -8 -14 -19 -15 -19 -29 2 -11 16 -24 20 -61 18 -38 -1
-48 2 -52 17 -5 20 -28 25 -34 7 -5 -14 -42 5 -75 38 -23 24 -53 31 -53 11 0
-6 -9 -1 -20 12 -14 16 -25 20 -37 14 -16 -7 -16 -8 5 -11 18 -4 22 -11 22
-39 0 -19 -3 -34 -7 -34 -14 1 -43 27 -43 38 0 7 -11 9 -30 6 -16 -4 -30 -2
-30 3 0 5 -15 10 -32 11 -18 1 -44 3 -58 5 -16 1 -24 -3 -22 -11 1 -9 -5 -11
-23 -6 -19 5 -25 2 -25 -10 0 -9 -3 -16 -6 -16 -11 0 -34 29 -34 43 0 26 -13
27 -36 0 -18 -21 -26 -24 -37 -15 -10 9 -16 9 -25 0 -20 -20 -37 5 -22 32 7
12 8 25 4 29 -5 3 -9 12 -10 19 -2 28 -5 32 -23 32 -16 0 -17 -6 -13 -49 4
-48 4 -49 -22 -44 -14 3 -26 9 -26 13 0 17 -62 40 -80 30 -12 -7 -26 -6 -43 3
-26 14 -97 11 -97 -3 0 -5 -11 -3 -25 3 -14 7 -25 15 -25 20 0 4 -18 7 -40 7
-22 0 -56 9 -75 20 -20 11 -40 18 -45 15 -5 -3 -12 0 -15 6 -4 5 -13 8 -19 6
-7 -3 -19 -1 -27 3 -9 6 -20 3 -31 -7 -11 -10 -18 -12 -18 -5 0 7 -6 12 -13
12 -7 0 -19 9 -27 20 -9 13 -26 20 -47 20 -17 0 -35 5 -38 10 -4 6 -11 8 -16
5 -5 -4 -9 -3 -9 2 0 16 -60 36 -73 24 -10 -7 -17 -5 -27 8 -20 28 -103 27
-130 -1 l-20 -22 -24 23 c-17 16 -33 21 -59 19 -26 -1 -41 3 -49 15 -7 10 -22
17 -33 16 -38 -4 -50 1 -60 24 -6 14 -19 22 -35 22 -34 1 -120 37 -120 51 0
13 -23 24 -51 24 -10 0 -19 5 -19 12 0 6 -7 4 -18 -5 -23 -21 -32 -21 -32 -3
0 9 -12 14 -34 14 -19 0 -60 12 -90 26 -30 14 -62 26 -70 26 -9 0 -16 5 -16
10 0 6 -6 10 -13 10 -8 0 -24 11 -37 25 -13 14 -33 25 -46 25 -12 0 -25 7 -28
16 -4 11 -14 14 -34 9 -22 -4 -33 0 -52 20 -13 14 -31 25 -40 25 -9 0 -20 4
-25 9 -6 5 -23 11 -39 13 -16 2 -34 12 -40 23 -19 34 -34 45 -60 45 -13 0 -31
7 -40 15 -8 8 -22 15 -30 15 -9 0 -16 3 -16 8 0 7 -73 42 -85 42 -10 -1 -39
33 -41 47 -4 23 -11 26 -33 13 -17 -9 -22 -8 -27 5 -3 8 -15 15 -25 15 -10 0
-18 6 -17 13 2 6 -5 11 -14 11 -10 -1 -21 10 -27 28 -6 16 -15 27 -21 23 -6
-3 -8 -11 -5 -16 4 -5 3 -9 -2 -9 -4 0 -19 20 -32 44 -13 26 -28 43 -36 40 -7
-3 -15 4 -18 15 -3 15 -13 21 -31 21 -14 0 -26 5 -26 11 0 5 -4 8 -8 5 -5 -3
-28 15 -52 39 -24 25 -53 45 -65 45 -11 0 -27 9 -35 20 -8 11 -23 20 -33 20
-10 0 -30 11 -45 25 -15 14 -32 25 -38 25 -13 0 -59 49 -67 73 -4 10 -11 16
-17 12 -5 -3 -15 3 -22 15 -7 11 -20 20 -28 20 -8 0 -20 11 -26 24 -9 19 -8
25 8 35 10 6 18 19 18 29 0 13 7 18 23 18 17 -1 23 5 25 28 3 23 0 28 -12 23
-9 -4 -16 -2 -16 3 0 6 -6 10 -14 10 -8 0 -18 9 -21 20 -4 11 -11 18 -16 14
-13 -7 -38 25 -39 48 0 23 -20 34 -31 17 -8 -12 -10 -12 -18 0 -5 7 -14 11
-20 7 -5 -4 -16 2 -23 14 -7 11 -18 20 -24 20 -6 0 -9 10 -7 23 3 16 -4 30
-26 50 -17 15 -35 27 -40 27 -14 0 -36 32 -36 53 0 14 -7 21 -22 22 -13 1 -32
10 -42 19 -11 10 -31 19 -45 20 -14 0 -26 4 -26 9 0 4 -13 21 -30 38 -16 18
-27 35 -24 40 3 5 1 9 -4 9 -5 0 -16 15 -23 33 -7 17 -28 48 -46 67 -18 19
-33 41 -33 48 0 6 -3 12 -8 12 -4 0 -13 14 -21 31 -10 23 -11 36 -2 55 10 22
7 28 -19 54 -22 22 -30 39 -30 65 0 45 -35 99 -75 115 -29 12 -69 61 -70 87 0
7 -7 21 -16 31 -8 10 -18 26 -22 36 -4 10 -16 20 -26 23 -12 3 -21 15 -23 32
-2 16 -8 25 -17 23 -14 -3 -42 28 -35 40 2 4 0 9 -6 13 -5 3 -10 17 -10 31 0
14 -6 24 -14 24 -8 0 -19 14 -25 30 -11 33 -34 60 -50 60 -14 0 -32 35 -23 44
13 13 8 86 -6 86 -7 0 -11 3 -9 8 4 7 -44 60 -50 55 -2 -2 -2 -2 -1 0 2 1 -5
13 -15 27 -21 30 -22 50 -2 50 23 0 18 15 -10 30 -27 14 -31 25 -15 35 14 9
12 25 -3 25 -6 0 -18 15 -25 33 -32 78 -43 98 -58 104 -11 4 -12 8 -4 13 9 6
9 13 1 28 -6 11 -11 29 -11 39 0 10 -7 31 -15 47 -8 15 -15 36 -15 46 0 10 -9
20 -20 23 -26 7 -36 35 -22 58 13 20 6 28 -20 24 -25 -4 -32 26 -8 32 26 7 26
23 1 23 -24 0 -32 12 -33 50 -1 17 -5 30 -10 30 -15 0 -8 41 11 61 16 17 17
26 8 55 -6 18 -18 42 -27 52 -9 10 -16 30 -16 45 1 15 -1 27 -4 27 -11 0 -31
70 -34 122 -2 29 -11 74 -20 101 -9 26 -14 52 -11 57 3 5 1 11 -4 14 -5 4 -13
1 -16 -5 -5 -6 -12 -3 -22 11 -12 16 -12 24 -3 35 7 9 9 22 5 32 -5 10 -8 21
-7 25 1 4 -3 20 -10 35 -6 15 -10 36 -9 46 1 9 -3 17 -9 17 -11 0 -11 21 4
120 2 14 -1 34 -7 45 -5 10 -10 33 -9 49 0 17 -3 35 -9 42 -5 6 -10 41 -11 77
-1 37 -5 67 -10 67 -11 0 -10 38 2 45 15 9 12 25 -5 25 -8 0 -15 5 -15 10 0 6
7 10 15 10 8 0 15 7 15 15 0 8 -5 15 -10 15 -6 0 -5 8 2 20 10 15 10 22 0 32
-6 6 -12 22 -12 35 0 16 -4 21 -15 17 -14 -6 -21 15 -16 53 1 6 -3 14 -8 18
-6 3 -8 12 -4 20 3 9 -2 26 -11 39 -11 18 -12 26 -4 28 8 3 5 12 -9 27 -13 14
-20 33 -18 52 1 16 -1 32 -6 35 -12 7 -12 44 0 44 9 0 34 59 25 61 -2 1 -9 2
-16 3 -7 0 -19 13 -28 28 -12 22 -13 32 -3 47 15 23 8 31 -29 31 -22 0 -28 5
-28 21 0 11 -7 27 -15 36 -9 9 -13 23 -9 35 5 18 4 19 -18 7 -51 -27 -79 -51
-70 -62 10 -14 9 -35 -3 -61 -5 -11 -4 -30 2 -47 8 -20 8 -29 -1 -32 -8 -3 -8
-8 1 -17 9 -10 8 -16 -7 -29 -13 -11 -20 -29 -20 -56 -2 -91 1 -135 11 -140 5
-4 6 -12 2 -18 -11 -17 -13 -68 -3 -92 29 -69 32 -88 18 -96 -9 -6 -9 -11 0
-22 7 -7 9 -17 5 -20 -3 -4 0 -13 7 -22 7 -8 10 -24 7 -36 -3 -12 0 -22 9 -26
13 -5 12 -8 -2 -24 -12 -13 -15 -28 -10 -54 4 -19 11 -35 16 -35 6 0 10 -18
10 -40 0 -22 4 -40 9 -40 7 0 14 -30 25 -120 1 -14 5 -32 9 -40 16 -43 38
-141 42 -192 0 -3 3 -10 8 -14 4 -4 7 -17 7 -29 0 -11 5 -26 11 -32 6 -6 11
-35 11 -64 1 -30 5 -61 9 -69 8 -15 21 -51 23 -60 1 -3 4 -10 8 -15 4 -6 3
-17 -2 -25 -5 -9 -5 -19 1 -26 6 -7 12 -30 13 -51 4 -52 17 -102 27 -109 5 -3
9 -16 9 -30 0 -13 5 -24 12 -24 6 0 9 -3 5 -6 -3 -3 3 -21 14 -40 22 -39 25
-114 7 -133 -11 -10 -9 -16 8 -30 26 -21 47 -58 39 -70 -3 -5 0 -11 6 -13 6
-2 12 -16 12 -31 0 -15 3 -30 8 -33 5 -3 9 -15 10 -27 1 -30 32 -82 50 -82 8
-1 13 -7 11 -14 -1 -7 8 -29 20 -49 12 -20 24 -47 26 -60 5 -40 21 -72 35 -72
10 0 13 -10 11 -32 -2 -17 3 -42 11 -55 9 -13 13 -27 10 -32 -2 -5 2 -12 11
-15 14 -5 14 -9 3 -23 -8 -9 -9 -14 -2 -10 21 13 40 -3 38 -31 -2 -30 20 -62
42 -62 8 0 13 -8 12 -18 -1 -9 2 -30 7 -47 4 -16 9 -32 9 -35 1 -3 5 -13 9
-23 5 -10 3 -23 -3 -30 -13 -16 7 -67 26 -67 15 0 44 -41 37 -52 -3 -5 3 -12
15 -15 20 -5 25 -18 22 -55 -2 -12 3 -16 13 -12 11 4 16 0 16 -15 0 -12 5 -21
10 -21 6 0 10 -7 10 -15 0 -9 11 -20 24 -25 28 -10 37 -28 24 -52 -6 -13 -5
-18 7 -18 8 0 15 -5 15 -11 0 -6 -12 -9 -28 -8 -15 2 -33 -1 -41 -6 -10 -5
-16 -4 -19 3 -2 7 -7 12 -12 12 -13 0 -5 -31 9 -40 8 -4 10 -13 6 -20 -10 -16
34 -3 53 17 13 12 18 11 38 -7 12 -12 27 -19 33 -15 7 4 11 -11 11 -44 0 -29
5 -51 11 -51 5 0 9 -8 7 -18 -1 -9 10 -29 25 -44 15 -15 27 -38 27 -53 0 -16
6 -25 15 -25 8 0 15 -6 15 -13 0 -7 9 -19 20 -27 11 -8 20 -22 20 -32 0 -10 5
-18 10 -18 6 0 10 -9 10 -21 0 -21 21 -49 37 -49 5 0 15 -16 23 -35 9 -23 16
-31 21 -23 5 7 9 10 11 8 22 -35 27 -50 16 -50 -9 0 -9 -3 0 -12 7 -7 12 -22
12 -35 0 -19 5 -23 30 -23 22 0 28 -4 24 -15 -4 -8 -1 -22 6 -29 8 -11 8 -20
1 -35 -10 -17 -8 -20 17 -23 19 -2 26 -8 24 -20 -1 -9 2 -19 8 -23 5 -3 10
-15 10 -26 0 -10 5 -19 10 -19 6 0 10 -6 10 -13 0 -8 12 -20 27 -28 30 -15 71
-49 60 -49 -4 0 12 -19 34 -42 23 -24 46 -43 51 -43 5 0 15 -11 22 -25 7 -14
17 -24 23 -23 6 1 18 -6 28 -17 9 -10 23 -16 31 -13 9 3 14 -2 14 -16 0 -12 6
-21 13 -21 16 0 50 -34 41 -42 -8 -9 48 -46 76 -49 28 -4 42 -39 15 -39 -9 0
-14 -4 -10 -9 3 -6 16 -4 32 4 32 17 43 12 43 -21 0 -13 5 -24 11 -24 5 0 8
-4 5 -9 -3 -4 3 -16 14 -26 11 -10 20 -24 20 -32 0 -12 12 -17 33 -14 4 0 7
-3 7 -9 0 -5 5 -10 11 -10 13 0 109 -96 109 -110 0 -13 17 -13 25 0 4 6 11 8
16 4 6 -4 6 -11 -2 -20 -9 -11 -8 -14 5 -14 9 0 19 -7 22 -15 4 -8 10 -12 15
-9 12 7 39 -21 39 -41 0 -9 3 -14 8 -11 10 6 37 -15 45 -36 4 -11 12 -15 22
-12 24 9 88 -25 81 -43 -4 -9 1 -17 14 -20 13 -3 20 -14 20 -28 0 -27 22 -47
47 -45 33 4 43 0 43 -15 0 -24 37 -55 66 -55 14 0 23 -4 19 -9 -4 -8 22 -23
45 -26 3 0 11 -4 18 -9 7 -4 19 -3 27 4 16 14 29 -1 34 -40 0 -5 14 -10 30
-10 17 0 33 -5 36 -10 5 -8 11 -7 20 0 8 7 19 9 25 5 10 -6 46 -16 66 -17 7
-1 10 -13 7 -28 -4 -30 23 -51 33 -25 4 9 15 13 27 11 12 -3 25 -5 28 -5 4 -1
30 -23 60 -51 29 -27 56 -47 60 -44 10 6 89 -26 89 -36 0 -4 19 -6 41 -5 36 2
43 -1 58 -26 13 -24 40 -39 73 -43 4 -1 15 -8 25 -16 10 -9 34 -17 53 -18 19
-1 39 -7 44 -12 5 -5 17 -4 28 3 16 10 21 9 29 -6 6 -9 17 -17 25 -17 9 0 29
-9 45 -21 40 -28 127 -60 135 -48 3 5 15 3 27 -6 12 -8 29 -15 39 -15 10 0 18
-6 18 -14 0 -15 27 -29 40 -21 5 3 16 -5 25 -17 13 -20 17 -21 25 -8 8 13 12
12 25 -8 16 -22 44 -26 57 -7 5 7 14 6 28 -2 11 -7 30 -13 43 -13 13 0 32 -7
43 -15 23 -17 70 -20 80 -3 5 7 10 4 15 -10 6 -15 17 -22 34 -22 14 0 25 -4
25 -9 0 -4 10 -8 23 -7 12 1 34 -6 49 -16 14 -10 33 -18 41 -18 9 0 19 -4 22
-10 9 -14 62 -13 71 2 5 8 10 5 15 -9 6 -16 15 -20 51 -19 23 1 54 -2 68 -7
14 -6 35 -9 48 -8 12 0 22 -4 22 -9 0 -6 25 -10 55 -10 30 0 55 -4 55 -10 0
-5 7 -10 15 -10 8 0 15 5 15 10 0 16 18 12 62 -16 23 -14 46 -27 52 -29 6 -1
19 -5 29 -10 10 -4 23 -2 32 5 10 9 15 9 15 1 0 -14 47 -15 55 -1 9 14 62 12
68 -2 4 -10 8 -9 16 2 9 12 14 13 31 3 11 -7 29 -13 40 -13 11 0 20 -4 20 -8
0 -5 18 -9 41 -10 22 -1 46 -5 52 -9 16 -10 87 -11 93 -1 3 5 13 3 22 -6 10
-8 31 -16 47 -19 17 -2 37 -7 45 -10 8 -3 40 -8 70 -11 30 -2 74 -7 98 -9 32
-4 45 -2 49 10 4 9 13 13 29 9 13 -4 24 -1 27 7 3 8 10 7 25 -7 13 -11 43 -21
72 -24 28 -2 52 -8 54 -11 8 -13 86 1 86 15 0 11 22 14 105 14 58 0 105 3 105
8 0 10 231 9 247 -1 20 -13 148 -10 172 4 17 11 23 11 29 2 5 -8 40 -14 98
-16 49 -2 96 -7 102 -11 7 -4 18 -3 25 3 14 11 35 10 54 -2 6 -4 15 -2 18 4 5
7 57 9 156 7 108 -2 152 1 157 9 8 13 52 14 52 1 0 -4 23 -8 50 -8 28 0 50 -5
50 -10 0 -7 7 -7 21 0 15 8 24 8 34 0 9 -7 15 -8 20 0 3 5 17 10 30 10 14 0
26 7 30 19 5 16 14 18 65 16 40 -1 61 2 64 11 6 16 69 46 93 44 46 -5 67 2 96
35 17 19 37 35 44 35 7 0 13 4 13 8 0 4 18 8 40 7 22 -1 40 3 40 7 0 4 9 8 20
8 11 0 20 5 20 10 0 6 8 10 18 10 10 0 22 3 26 7 3 4 14 8 22 9 9 1 23 6 32
10 9 4 27 6 40 5 12 -1 22 2 22 8 0 6 11 11 25 11 14 0 25 -4 25 -10 0 -5 12
2 27 16 21 19 35 24 55 20 15 -3 30 -1 34 5 3 6 12 8 19 5 7 -2 22 2 34 10 12
8 25 13 30 10 4 -3 17 4 29 14 12 11 30 20 41 20 11 0 22 4 26 9 3 6 14 8 25
6 11 -2 20 0 20 6 0 5 11 9 25 9 14 0 28 7 31 15 4 8 10 13 14 10 12 -8 73 21
94 44 15 16 21 18 28 9 6 -10 10 -10 19 2 7 11 12 12 15 3 8 -18 51 5 58 30 4
18 7 19 22 6 14 -12 19 -10 39 15 12 15 31 27 41 26 60 -7 96 1 101 20 4 14
11 18 27 15 15 -4 27 2 40 19 14 20 24 24 43 20 19 -5 30 -1 47 18 11 13 39
37 61 54 22 16 45 35 50 42 6 7 17 14 25 15 8 1 26 10 40 20 13 9 29 17 35 17
6 0 17 9 25 19 7 11 17 18 21 15 5 -3 14 4 21 16 7 11 17 20 23 20 5 0 25 17
44 37 22 25 35 33 38 25 4 -10 8 -10 19 -1 10 8 14 8 14 0 0 -20 40 -12 68 14
15 14 32 25 39 25 7 0 13 9 13 19 0 19 21 33 50 35 8 1 26 13 41 29 14 15 31
27 36 27 5 0 20 11 33 25 13 14 29 25 35 25 22 0 64 25 75 45 6 11 26 31 45
44 19 13 35 32 35 43 0 11 11 23 27 29 35 13 64 39 57 50 -5 8 10 13 29 10 4
0 7 8 7 19 0 11 6 20 13 20 8 0 19 10 26 23 7 12 26 29 44 37 45 20 72 47 72
73 0 12 6 23 13 23 6 1 16 2 22 3 15 2 81 66 94 92 6 12 22 24 35 26 33 5 63
37 54 59 -5 13 -3 16 10 11 12 -5 17 -1 17 13 0 19 20 27 33 13 11 -11 61 -10
73 1 5 6 13 19 17 28 3 10 13 18 22 18 8 0 14 6 13 13 -2 7 10 13 30 15 24 2
32 8 32 22 0 26 -19 35 -33 17 -12 -16 -27 -20 -60 -18 -17 1 -17 2 0 33 24
44 138 158 157 158 10 0 15 8 13 21 -1 12 6 26 16 33 15 9 20 8 28 -7 9 -15
12 -15 25 -3 8 8 14 19 13 23 -4 22 3 33 20 33 25 0 35 28 16 46 -19 19 -19
44 -1 44 18 0 78 59 71 70 -8 13 54 60 70 54 10 -4 15 0 15 15 0 12 -4 21 -10
21 -16 0 -11 28 7 39 14 8 15 12 4 25 -14 17 -13 18 34 20 29 1 30 3 33 54 2
31 -2 60 -9 68 -12 14 -12 14 41 18 28 2 40 17 40 52 0 19 4 34 9 34 5 0 12
13 16 30 4 16 11 30 17 30 5 0 8 6 5 13 -2 6 -10 11 -16 9 -6 -1 -11 9 -11 23
0 22 3 25 25 19 19 -5 25 -2 25 9 0 9 -5 19 -11 23 -8 4 -2 12 15 21 25 13 30
23 27 51 -1 6 7 12 18 12 23 0 38 42 40 113 1 20 6 27 21 27 11 0 20 5 20 10
0 6 -4 10 -10 10 -5 0 -10 14 -10 30 0 26 8 34 31 32 3 0 10 8 17 19 7 11 8
19 2 19 -5 0 -7 7 -4 15 4 8 12 15 20 15 8 0 14 7 14 16 0 8 6 21 13 28 6 7
21 25 32 40 11 16 25 34 32 41 6 7 9 21 7 32 -3 11 1 26 9 34 7 8 12 20 9 27
-2 6 1 12 7 12 6 0 11 11 11 25 0 14 5 25 10 25 6 0 10 9 10 20 0 11 4 20 9
20 5 0 13 15 17 33 4 17 9 34 10 37 1 3 5 15 9 28 4 12 11 22 15 22 6 0 19 26
24 52 0 3 4 10 9 14 4 4 7 18 7 30 0 13 5 26 10 29 6 3 10 21 10 39 0 17 5 37
12 44 9 9 9 15 0 24 -7 7 -12 20 -12 30 0 17 3 26 27 73 12 23 25 77 28 117 1
15 9 38 17 50 7 13 13 41 12 63 -1 26 5 47 16 60 22 25 33 61 32 103 -1 17 3
32 8 32 6 0 10 9 10 20 0 22 10 26 26 10 7 -7 11 -6 11 5 0 8 -5 15 -10 15
-14 0 1 93 16 102 9 5 15 25 15 53 1 25 5 51 9 58 4 7 9 28 10 47 9 113 16
166 24 176 5 6 4 15 -2 21 -8 8 -7 17 3 32 10 15 13 35 8 71 -5 41 -4 50 9 50
12 0 12 3 3 12 -14 14 -16 55 -3 60 13 5 24 48 12 48 -5 0 -8 13 -6 30 2 16
-1 32 -6 35 -14 9 -11 28 4 22 8 -3 20 -1 27 3 11 7 10 16 -5 50 -15 33 -16
45 -7 60 6 11 8 21 3 24 -10 7 -11 126 0 126 4 0 6 9 4 20 -2 11 1 22 6 26 6
4 4 13 -7 25 -9 11 -15 20 -13 22 2 1 13 7 24 13 23 13 27 49 6 49 -8 0 -15 8
-17 18 -1 9 4 17 13 17 8 0 21 7 30 15 13 14 13 20 -1 56 -9 22 -14 44 -11 49
3 5 1 11 -5 15 -18 11 -11 54 10 65 19 10 19 12 3 36 -13 21 -14 30 -5 45 16
25 15 26 -8 32 -28 7 -25 36 5 47 14 5 25 16 25 25 0 8 5 15 12 15 6 0 2 8 -9
18 -11 9 -26 32 -34 50 -7 17 -20 32 -26 32 -20 0 -15 17 7 23 23 6 39 39 22
45 -16 5 -15 29 1 39 24 16 21 173 -4 189 -13 8 -11 58 3 72 9 9 9 12 -1 12
-9 0 -12 16 -10 53 1 29 -2 60 -6 68 -14 21 -14 61 -1 82 8 12 8 20 0 25 -6 4
-10 47 -9 107 0 55 -3 106 -9 113 -6 8 -5 17 2 24 7 7 7 17 0 34 -8 17 -8 27
0 37 7 8 8 17 3 23 -5 5 -11 25 -12 44 -2 19 -7 41 -12 48 -6 8 -5 18 4 29 11
13 11 17 2 20 -7 3 -13 20 -13 38 0 19 -4 37 -10 40 -5 3 -10 29 -10 57 0 34
-6 58 -19 74 -11 14 -18 35 -16 46 3 13 -3 27 -14 34 -10 8 -18 26 -19 45 0
18 -6 35 -13 39 -6 4 -8 13 -5 19 4 6 4 11 -1 11 -4 0 -9 21 -10 47 -1 36 -7
52 -24 66 -21 17 -21 19 -5 35 14 14 18 15 25 3 8 -12 11 -12 23 0 17 15 12
49 -7 49 -18 0 -47 36 -61 75 -9 28 -9 37 2 46 8 6 11 16 8 21 -4 6 -10 6 -17
-1 -12 -12 -66 16 -68 36 -3 27 -4 32 -11 39 -12 12 -9 54 4 54 6 0 1 11 -11
24 -17 18 -19 25 -9 30 10 5 10 7 1 12 -7 3 -13 14 -13 24 0 10 -7 20 -15 24
-9 3 -15 18 -15 37 0 20 -8 40 -22 53 -36 35 -48 62 -48 110 0 25 -4 48 -10
51 -5 3 -10 24 -10 46 0 21 -4 39 -9 39 -4 0 -14 20 -21 45 -7 25 -23 54 -35
63 -17 14 -22 27 -21 61 1 40 -3 49 -41 85 -24 23 -43 50 -43 62 0 11 -9 29
-20 39 -11 10 -20 24 -20 32 0 7 -5 13 -11 13 -6 0 -9 6 -7 12 6 16 -16 38
-37 38 -11 0 -15 5 -12 14 3 7 0 22 -7 32 -36 52 -62 112 -62 139 1 23 -10 41
-44 75 -24 25 -53 50 -65 55 -11 6 -20 17 -20 25 0 8 -4 16 -8 17 -12 4 -33
27 -40 46 -3 9 -22 25 -42 34 -22 10 -34 22 -30 30 2 8 -1 16 -8 19 -8 3 -20
20 -27 39 -8 19 -17 35 -21 35 -4 0 -9 8 -11 18 -3 10 -24 28 -47 40 -44 23
-91 64 -91 80 0 5 -11 15 -25 22 -14 7 -25 19 -25 27 0 7 -6 13 -13 13 -7 0
-19 16 -27 35 -10 25 -20 35 -36 35 -15 0 -26 10 -34 30 -7 16 -16 28 -20 25
-4 -2 -16 9 -28 25 -12 16 -35 36 -51 46 -16 10 -32 26 -35 37 -3 14 -10 17
-25 12 -14 -4 -21 -2 -21 7 0 8 -9 24 -20 36 -11 12 -20 26 -20 31 0 18 -44
52 -65 49 -11 -1 -36 9 -55 24 -19 14 -52 33 -73 42 -21 8 -44 21 -52 28 -37
33 -50 43 -60 43 -6 0 -26 12 -45 27 -19 15 -47 29 -61 33 -15 4 -39 20 -55
36 -15 16 -33 29 -40 29 -7 0 -26 11 -42 25 -17 14 -35 25 -41 25 -6 0 -20 9
-31 20 -12 12 -25 18 -31 15 -5 -4 -17 -1 -26 7 -9 7 -19 13 -22 12 -3 -1 -16
5 -27 13 -27 17 -55 23 -74 13z"/>
<path d="M3735 11290 c-3 -6 1 -7 9 -4 18 7 21 14 7 14 -6 0 -13 -4 -16 -10z"/>
<path d="M3768 11275 c-3 -3 -16 -8 -29 -10 -12 -3 -27 -11 -31 -20 -5 -8 -18
-15 -29 -15 -11 0 -22 -7 -25 -15 -4 -8 -16 -15 -28 -15 -12 0 -27 -9 -34 -21
-9 -15 -21 -20 -43 -17 -17 2 -33 -3 -38 -10 -5 -8 -12 -14 -17 -14 -21 -1
-51 -18 -73 -42 -13 -14 -27 -23 -31 -21 -4 3 -15 -4 -25 -15 -10 -11 -24 -20
-31 -20 -21 0 -93 -52 -100 -72 -3 -11 -12 -17 -19 -14 -7 2 -22 -6 -34 -20
-11 -13 -27 -24 -35 -24 -8 0 -16 -3 -18 -7 -1 -5 -24 -19 -50 -32 -29 -14
-52 -35 -60 -52 -7 -15 -16 -25 -21 -22 -13 8 -37 -17 -37 -39 0 -20 -28 -37
-39 -22 -3 5 -13 10 -21 9 -11 0 -14 -9 -12 -33 3 -30 -4 -38 -32 -33 -5 1
-13 -4 -18 -11 -8 -10 -11 -10 -15 0 -8 20 -23 3 -23 -26 0 -19 -7 -30 -22
-37 -16 -7 -23 -20 -25 -44 -4 -43 -5 -44 -37 -31 -22 8 -28 7 -33 -6 -3 -9
-1 -24 5 -34 12 -20 -2 -50 -17 -35 -5 6 -11 18 -13 27 -2 15 -8 13 -38 -13
-19 -17 -46 -39 -60 -49 -20 -15 -22 -20 -12 -33 17 -20 6 -26 -38 -22 -35 3
-58 -4 -59 -17 -1 -5 -1 -15 -1 -23 0 -8 -7 -15 -15 -15 -14 0 -19 -11 -16
-37 1 -8 -9 -13 -24 -13 -14 0 -25 -6 -25 -13 0 -16 -42 -57 -58 -57 -12 0
-16 -12 -12 -44 1 -10 -3 -15 -8 -12 -5 3 -12 -4 -15 -15 -4 -14 -11 -20 -20
-16 -17 6 -47 -22 -47 -44 0 -8 -13 -23 -30 -32 -16 -10 -30 -24 -30 -30 0 -7
-22 -34 -48 -60 -38 -38 -48 -54 -47 -78 1 -18 -3 -29 -11 -29 -7 0 -18 -9
-24 -20 -6 -11 -17 -20 -24 -20 -8 0 -16 -7 -20 -15 -3 -8 -12 -15 -19 -15 -8
0 -30 -15 -49 -33 -28 -26 -33 -37 -27 -54 10 -28 -28 -120 -53 -126 -12 -4
-18 -14 -18 -36 0 -27 -4 -31 -26 -31 -22 0 -24 -2 -14 -15 12 -15 6 -35 -11
-35 -14 0 -48 -41 -49 -57 0 -7 -4 -13 -10 -13 -5 0 -10 -10 -10 -22 0 -12 -3
-18 -7 -15 -9 9 -43 -22 -43 -40 0 -21 -22 -53 -68 -101 -27 -27 -41 -50 -38
-59 3 -8 -1 -21 -9 -30 -8 -8 -13 -19 -10 -24 4 -5 -1 -9 -9 -9 -10 0 -13 -6
-9 -16 4 -10 -1 -20 -11 -26 -15 -9 -15 -12 4 -38 25 -35 25 -40 1 -40 -10 0
-21 -7 -25 -15 -3 -8 -12 -15 -21 -15 -8 0 -15 -6 -16 -12 -1 -7 -2 -24 -2
-38 -1 -15 -11 -29 -24 -35 -26 -11 -29 -26 -10 -56 10 -17 10 -23 0 -26 -7
-3 -13 -18 -13 -34 0 -23 -4 -29 -22 -29 -12 0 -18 -3 -15 -7 4 -3 2 -12 -4
-20 -7 -7 -9 -26 -5 -43 4 -22 2 -30 -9 -30 -17 0 -35 -30 -35 -60 0 -12 -7
-29 -16 -37 -14 -15 -13 -17 15 -29 39 -16 39 -31 1 -39 -20 -4 -30 -13 -30
-25 0 -32 11 -50 31 -50 25 0 24 -4 -6 -36 -18 -20 -22 -31 -15 -44 5 -9 5
-21 0 -26 -8 -9 -13 -49 -11 -86 1 -10 8 -18 16 -18 21 0 19 -37 -3 -49 -14
-9 -14 -12 -3 -20 9 -6 10 -11 2 -15 -18 -12 -12 -25 14 -32 16 -4 25 -13 25
-25 0 -10 5 -19 11 -19 7 0 9 -12 7 -30 -3 -17 -1 -33 3 -36 5 -2 6 -11 3 -18
-3 -7 2 -19 10 -26 16 -13 12 -35 -5 -25 -5 4 -9 -3 -9 -14 0 -12 4 -21 9 -21
4 0 7 -21 6 -47 -2 -52 19 -89 35 -62 7 11 10 10 15 -3 4 -10 5 -23 2 -30 -2
-7 0 -24 6 -38 5 -14 10 -32 11 -40 7 -52 23 -83 64 -126 7 -8 10 -18 7 -24
-3 -5 1 -10 9 -10 9 0 16 -4 16 -10 0 -5 7 -10 15 -10 8 0 15 -5 15 -10 0 -6
11 -15 24 -21 21 -10 29 -22 36 -57 1 -4 10 -10 21 -14 11 -4 27 -21 37 -38 9
-16 22 -30 28 -30 6 0 19 -9 29 -20 10 -11 14 -20 9 -20 -16 0 45 -28 68 -32
12 -2 28 -14 35 -28 8 -16 19 -24 32 -22 11 2 22 -2 26 -8 5 -8 11 -8 21 0 10
9 19 7 40 -9 15 -12 37 -21 50 -21 13 0 24 -3 24 -7 0 -5 18 -7 40 -7 46 2 70
-17 50 -41 -6 -8 -9 -23 -5 -36 4 -12 1 -32 -5 -45 -11 -19 -11 -26 0 -39 9
-11 10 -19 2 -27 -11 -11 2 -45 22 -59 5 -4 -1 -13 -13 -20 -17 -11 -21 -23
-21 -66 0 -29 5 -53 10 -53 6 0 10 -7 10 -15 0 -8 -4 -15 -10 -15 -13 0 -13
-47 0 -55 6 -3 10 -19 10 -34 0 -15 5 -32 12 -39 7 -7 8 -12 4 -12 -5 0 -2 -7
5 -17 11 -13 11 -17 2 -20 -10 -4 -10 -9 -1 -26 13 -24 11 -65 -3 -84 -11 -13
5 -28 20 -18 10 5 24 -11 27 -30 1 -5 5 -28 9 -50 4 -22 7 -48 7 -58 -1 -10 6
-21 14 -24 7 -3 11 -9 8 -14 -4 -7 20 -39 72 -93 13 -15 25 -40 38 -88 4 -14
16 -34 27 -44 10 -9 19 -23 19 -31 0 -9 8 -13 21 -11 16 2 24 -5 33 -32 28
-76 36 -90 51 -90 8 0 15 -7 15 -15 0 -10 10 -15 34 -15 26 0 39 -7 54 -27 11
-16 19 -32 18 -38 0 -6 15 -9 36 -7 26 3 47 -3 67 -17 16 -12 33 -21 38 -20
22 4 33 -3 33 -21 0 -23 4 -24 29 -10 14 7 23 4 39 -13 11 -12 21 -26 22 -32
0 -5 13 -9 28 -8 43 3 57 -4 42 -22 -10 -12 -10 -15 2 -15 8 0 19 5 25 11 8 8
13 8 17 0 4 -6 18 -11 31 -11 13 0 26 -6 28 -12 4 -10 6 -10 6 0 1 15 41 16
41 1 0 -6 9 -9 20 -6 11 3 23 1 26 -4 7 -12 44 -12 44 1 0 13 63 3 75 -12 12
-16 66 -20 83 -6 6 6 12 7 12 2 0 -18 50 -11 73 10 12 11 30 20 39 18 9 -2 26
6 37 17 24 24 32 26 28 9 -1 -7 5 -11 13 -9 8 2 34 7 58 11 27 4 55 18 75 37
18 17 39 33 48 36 18 6 79 91 79 109 0 5 7 7 15 4 9 -3 18 1 21 8 5 12 18 19
59 31 19 5 95 84 95 99 0 8 8 20 18 25 16 10 16 12 -3 26 -17 14 -18 17 -5 25
12 8 12 10 -5 11 -11 1 -24 1 -28 0 -11 -2 3 43 14 47 5 2 9 12 9 23 0 10 7
19 15 19 8 0 15 -5 15 -11 0 -6 7 -8 15 -5 21 8 31 -20 15 -39 -7 -9 -11 -17
-9 -18 2 -2 17 -11 32 -21 29 -18 29 -18 8 -32 -22 -16 -18 -44 5 -44 10 0 13
-8 10 -26 -5 -26 -4 -27 72 -94 12 -11 26 -20 31 -20 4 0 23 -15 42 -33 44
-43 112 -69 191 -73 35 -2 82 -6 106 -10 26 -4 42 -2 42 4 0 9 28 23 50 27 12
2 42 22 41 28 -3 20 3 23 42 24 71 1 77 3 77 18 0 10 10 15 30 15 33 0 86 42
75 59 -3 6 4 26 15 46 11 19 20 45 20 56 0 16 3 18 19 9 11 -5 26 -7 34 -4 10
4 14 -2 13 -18 0 -13 4 -22 10 -21 7 1 10 -10 9 -28 -2 -18 4 -34 14 -42 9 -6
18 -21 19 -32 2 -11 20 -36 40 -56 35 -35 59 -44 142 -55 81 -10 110 -17 110
-25 0 -5 22 -9 48 -9 36 0 54 5 66 19 10 11 26 18 37 16 18 -4 23 5 20 33 -1
8 5 12 16 10 10 -1 24 1 31 5 7 5 12 4 12 -2 0 -6 5 -11 10 -11 6 0 8 11 6 25
-4 24 2 29 31 26 6 -1 22 13 34 31 13 18 27 35 31 36 4 2 8 10 8 18 0 8 6 14
13 14 8 0 20 18 27 40 9 27 18 39 29 38 10 -2 16 4 16 17 0 11 6 24 13 28 7 5
10 13 6 18 -3 6 4 19 17 30 12 10 18 19 14 19 -4 0 -1 8 8 18 8 9 16 19 16 22
0 16 18 48 43 73 15 16 25 33 22 38 -3 5 4 9 14 9 25 0 51 74 30 86 -5 3 -4
12 2 19 7 8 9 18 6 24 -4 5 3 12 14 16 13 4 20 15 20 31 0 14 7 28 18 32 9 4
18 15 18 25 1 9 2 26 3 36 0 11 8 27 17 36 11 10 13 20 6 28 -12 15 -12 48 -1
63 6 7 35 9 79 6 39 -2 76 0 83 6 14 11 242 11 253 0 4 -5 20 -8 36 -8 15 0
28 -4 28 -8 0 -5 16 -16 35 -25 20 -9 35 -24 36 -34 0 -10 1 -37 1 -60 0 -24
4 -43 7 -43 13 0 70 -235 74 -305 1 -22 8 -44 15 -48 16 -10 16 -36 -1 -42 -6
-3 -13 -23 -13 -44 -1 -22 -8 -47 -17 -55 -9 -9 -18 -25 -22 -36 -3 -10 -15
-22 -25 -25 -10 -3 -22 -15 -25 -26 -4 -10 -9 -20 -13 -20 -47 -9 -130 -11
-142 -4 -4 3 -5 15 -3 28 3 16 -4 33 -21 52 -14 15 -26 34 -26 41 0 8 -4 14
-10 14 -5 0 -10 7 -10 15 0 8 -6 15 -13 15 -7 0 -19 9 -27 20 -11 15 -17 17
-29 7 -11 -9 -15 -9 -18 1 -3 6 -11 12 -19 12 -8 0 -14 10 -14 24 0 14 -5 28
-10 31 -6 4 -8 10 -6 14 8 13 -24 51 -43 51 -10 0 -21 3 -25 7 -27 28 -62 -21
-54 -76 3 -18 0 -32 -7 -35 -7 -2 -11 -23 -10 -50 1 -26 -2 -49 -6 -52 -5 -3
-5 -13 -1 -22 5 -9 8 -39 8 -66 -1 -41 3 -52 26 -71 16 -13 28 -27 28 -32 0
-11 61 -61 95 -79 21 -11 31 -11 41 -3 13 11 18 6 15 -13 0 -5 4 -9 9 -9 6 -1
16 -2 23 -3 6 -1 15 3 19 8 4 6 12 5 20 -2 11 -9 19 -8 34 1 22 15 67 14 72
-1 3 -11 42 -4 42 8 0 10 87 2 110 -10 15 -8 24 -5 44 15 15 14 26 30 26 35 0
6 20 19 45 31 25 12 45 28 45 36 0 8 6 13 12 11 19 -7 38 17 38 45 0 14 6 28
13 30 9 4 8 8 -3 17 -12 9 -12 13 -2 17 9 4 10 8 2 18 -8 10 -8 19 2 34 7 12
16 21 20 21 4 0 5 9 3 20 -2 11 0 22 6 25 14 9 11 25 -6 25 -9 0 -15 9 -15 25
0 16 6 25 15 25 17 0 20 16 6 24 -13 8 -8 32 12 54 9 10 14 22 10 26 -11 11
-13 39 -3 52 7 7 1 19 -15 34 -27 25 -35 84 -12 93 10 4 10 6 0 6 -7 1 -13 10
-13 21 0 11 -3 20 -7 20 -5 0 -13 11 -20 25 -6 14 -7 25 -2 25 5 0 9 16 9 35
0 19 -4 35 -10 35 -14 0 -12 16 3 32 8 7 12 19 9 26 -2 7 6 12 20 13 12 0 17
3 11 6 -23 9 -14 41 17 63 17 12 28 26 24 31 -10 16 4 56 22 63 9 4 23 1 30
-5 11 -9 14 -8 14 2 0 8 11 23 25 33 14 10 25 27 25 37 0 23 18 35 32 21 11
-11 38 7 38 25 0 5 16 24 35 43 19 19 35 44 35 56 0 14 8 24 21 27 12 3 18 10
15 16 -3 5 7 19 24 31 l30 21 0 -20 c0 -12 5 -21 12 -21 7 0 5 -7 -5 -17 -13
-16 -14 -20 -1 -37 16 -23 19 -40 4 -31 -9 6 -14 -8 -11 -27 0 -5 -4 -8 -9 -8
-6 0 -10 -5 -10 -12 0 -9 3 -9 12 0 25 25 36 -1 14 -36 -5 -8 -2 -20 8 -31 19
-21 21 -41 4 -41 -9 0 -9 -3 0 -12 7 -7 12 -26 12 -44 0 -28 -4 -33 -32 -40
-18 -4 -36 -7 -40 -6 -5 1 -8 -3 -8 -8 0 -6 5 -11 10 -11 6 -1 14 -2 19 -3 17
-2 24 -15 14 -28 -12 -16 -48 -130 -45 -142 2 -5 -3 -13 -10 -17 -7 -4 -9 -12
-4 -16 5 -4 11 -2 13 5 3 6 11 12 19 12 8 0 14 7 14 15 0 22 17 18 23 -5 8
-31 -3 -59 -25 -66 -12 -3 -17 -9 -12 -13 16 -11 35 -51 24 -51 -5 0 -10 -15
-10 -34 0 -19 -5 -38 -11 -42 -6 -3 -8 -15 -6 -25 4 -14 -3 -25 -21 -36 -15
-9 -29 -19 -32 -21 -3 -2 8 -14 24 -27 20 -16 26 -27 20 -36 -12 -20 -14 -38
-3 -45 5 -3 5 -13 1 -22 -5 -9 -8 -30 -7 -45 1 -15 -2 -30 -7 -33 -4 -3 -8
-16 -8 -30 0 -16 -6 -24 -18 -24 -21 0 -28 -45 -11 -66 8 -10 7 -24 -5 -55
-17 -43 -10 -69 20 -69 8 0 14 -9 14 -20 0 -13 9 -22 28 -26 50 -11 62 -15 61
-22 -4 -28 3 -40 20 -35 10 3 22 0 25 -6 20 -31 106 2 106 41 0 10 5 18 10 18
14 0 13 36 -2 60 -9 15 -10 27 -1 52 13 37 15 108 3 108 -4 0 -13 -7 -20 -15
-7 -8 -9 -15 -4 -15 4 0 3 -5 -4 -12 -8 -8 -15 -8 -26 2 -14 11 -14 16 2 43
22 41 42 62 67 71 16 6 17 9 5 16 -21 14 -30 12 -30 -4 0 -12 -20 -26 -36 -26
-7 0 2 54 12 75 6 11 10 43 8 70 -1 28 1 55 5 60 3 6 7 19 8 30 6 43 25 65 50
59 27 -7 30 7 7 31 -16 16 -13 45 6 45 5 0 10 6 10 14 0 19 39 31 53 17 14
-14 27 -14 27 -1 0 6 -7 10 -15 10 -20 0 -19 23 3 43 9 8 19 16 22 16 9 0 45
12 62 22 10 5 27 9 38 9 11 0 20 7 20 15 0 8 7 15 15 15 8 0 15 5 15 10 0 6 8
10 19 10 21 0 106 43 128 65 21 22 69 45 76 38 4 -3 11 6 17 21 5 15 14 24 20
21 5 -3 10 -2 10 4 0 6 16 13 36 17 43 8 86 -9 78 -31 -3 -8 -1 -15 4 -15 12
0 64 -74 71 -100 2 -8 6 -32 9 -52 2 -21 8 -38 13 -38 5 0 9 -16 9 -35 0 -25
-4 -35 -16 -35 -10 0 -14 -6 -11 -14 3 -8 3 -17 -1 -21 -4 -4 -7 -10 -8 -13 0
-4 -5 -18 -10 -32 -12 -30 -10 -85 4 -120 5 -14 8 -28 5 -32 -2 -5 1 -8 6 -8
17 0 13 -32 -6 -45 -17 -13 -17 -14 0 -32 22 -26 24 -113 2 -113 -15 0 -16 -4
-19 -102 0 -25 -4 -50 -8 -54 -14 -13 -9 -61 7 -74 8 -7 15 -18 15 -24 0 -19
58 -70 80 -71 12 -1 28 -12 36 -24 9 -12 24 -21 34 -19 19 3 110 -49 110 -63
0 -4 18 -7 40 -5 22 2 37 -1 34 -5 -3 -5 13 -10 35 -10 45 -2 48 -2 74 -13 9
-5 23 -4 30 2 6 5 23 13 37 17 13 4 29 13 36 19 39 37 128 112 140 119 8 4 14
15 14 23 0 8 9 24 20 36 l20 22 26 -25 c14 -13 30 -34 35 -46 5 -13 27 -31 49
-40 22 -10 40 -22 40 -28 0 -5 4 -4 9 3 6 10 16 6 42 -17 21 -20 40 -29 51
-25 10 3 24 -3 34 -15 10 -11 21 -18 26 -15 4 3 8 0 8 -5 0 -6 9 -11 20 -11
11 0 40 -9 65 -21 27 -13 52 -18 62 -14 30 12 72 15 78 5 9 -14 83 -12 87 2 3
7 18 11 36 10 21 -2 35 4 45 18 8 11 21 18 28 15 8 -3 24 3 34 13 11 10 28 21
38 25 10 4 15 11 12 17 -8 13 1 13 24 1 13 -7 22 -5 34 10 9 10 14 19 10 19
-3 0 2 9 12 20 9 10 20 19 24 18 21 -2 31 4 31 21 0 11 5 23 11 27 6 3 9 17 6
30 -3 15 0 24 8 24 16 0 48 76 47 114 -1 26 17 56 32 56 3 0 6 -11 6 -24 0
-13 6 -26 13 -29 8 -3 7 -9 -6 -19 -17 -13 -16 -15 13 -43 16 -16 30 -35 30
-42 0 -7 21 -33 46 -57 27 -26 43 -49 39 -56 -4 -7 2 -14 14 -17 12 -3 21 -9
21 -13 0 -4 9 -10 20 -13 13 -3 18 -12 15 -25 -6 -32 82 -75 154 -74 31 0 61
-4 68 -10 14 -11 53 10 53 29 0 15 9 16 29 4 22 -14 61 16 61 46 0 18 4 24 15
19 8 -3 15 -1 15 4 0 6 8 10 18 10 30 0 64 76 40 91 -5 3 -2 9 7 13 12 4 18 0
22 -14 3 -11 9 -20 14 -20 5 0 9 -9 9 -20 0 -11 5 -20 11 -20 5 0 8 -4 5 -9
-3 -4 3 -16 14 -26 11 -10 20 -22 20 -26 0 -21 116 -139 136 -139 8 0 14 -3
14 -8 0 -11 101 -46 132 -45 46 1 111 13 125 25 7 6 24 8 37 6 15 -3 27 0 30
8 6 16 52 19 61 4 14 -23 108 60 98 87 -4 11 -3 14 6 9 8 -5 14 -1 18 13 3 12
12 21 19 21 8 0 14 6 14 14 0 7 10 16 23 20 18 5 20 8 7 16 -12 8 -13 11 -1
19 9 6 10 11 2 15 -17 11 -13 40 9 64 14 15 19 30 16 48 -3 15 -1 35 5 45 5
11 6 19 1 19 -14 0 -7 32 20 88 15 28 22 52 17 52 -6 0 -9 29 -7 68 3 61 5 67
25 68 12 1 30 5 40 9 10 5 25 9 33 10 31 5 60 18 60 27 0 5 4 7 9 3 5 -3 18 5
28 18 10 13 24 22 31 19 6 -2 12 1 12 7 0 6 5 11 11 11 11 0 78 54 153 123 17
15 33 27 37 27 18 0 48 39 44 58 -5 26 8 35 48 34 22 -1 27 2 18 11 -15 15
-14 27 2 27 18 1 49 48 45 68 -2 9 -11 16 -21 16 -21 -2 -22 10 -2 30 11 11
27 14 57 10 41 -6 64 8 50 31 -9 15 -9 85 0 85 4 0 8 7 8 15 0 8 5 15 10 15 6
0 10 -7 10 -16 0 -9 7 -14 18 -12 14 3 17 14 17 59 0 54 19 90 50 97 25 5 6
27 -35 41 -25 9 -51 20 -58 24 -20 13 -44 -18 -36 -47 8 -32 -14 -43 -47 -25
-17 9 -24 9 -27 0 -2 -6 -10 -11 -17 -11 -7 0 -16 -12 -20 -27 -8 -35 -38 -63
-65 -63 -11 0 -20 -7 -20 -15 0 -8 -4 -15 -8 -15 -5 0 -15 -12 -22 -27 -8 -16
-24 -41 -35 -58 -12 -16 -25 -38 -28 -48 -4 -11 -16 -21 -27 -24 -11 -3 -20
-10 -20 -15 0 -6 -6 -8 -13 -5 -7 3 -31 -13 -52 -34 -21 -21 -42 -39 -46 -39
-14 0 -50 -43 -46 -55 7 -16 -22 -65 -38 -65 -8 0 -15 -4 -15 -9 0 -5 -9 -13
-20 -16 -11 -4 -18 -10 -15 -14 2 -5 -11 -17 -30 -27 -19 -10 -35 -22 -35 -26
0 -20 -18 -4 -30 27 -8 19 -17 35 -21 35 -4 0 -6 10 -4 21 2 12 -5 40 -15 62
-11 22 -20 56 -20 74 0 19 -8 45 -17 60 -10 14 -18 32 -19 40 -2 8 -4 16 -6
16 -2 1 -17 12 -35 25 -38 26 -43 27 -43 7 0 -8 -4 -15 -10 -15 -5 0 -10 9
-10 20 0 15 -7 20 -30 20 -16 0 -34 -6 -40 -12 -6 -7 -24 -28 -39 -46 -20 -23
-28 -43 -27 -63 1 -16 -3 -34 -10 -40 -10 -8 -10 -18 0 -47 7 -20 11 -58 10
-84 -2 -26 1 -50 6 -53 6 -4 10 -24 10 -45 0 -21 3 -40 8 -42 11 -5 42 -64 42
-80 0 -19 109 -130 120 -123 5 3 12 0 16 -7 9 -13 6 -86 -3 -101 -3 -6 -7 -25
-9 -44 -2 -18 -7 -39 -11 -46 -4 -6 -7 -21 -8 -33 0 -11 -8 -28 -17 -38 -10
-10 -18 -26 -18 -36 0 -24 -31 -90 -42 -90 -4 0 -8 -5 -8 -10 0 -6 -11 -22
-25 -36 -14 -14 -25 -22 -25 -17 0 4 -5 2 -12 -5 -14 -14 -54 -16 -62 -3 -3 5
-20 8 -38 7 -18 -1 -42 4 -54 11 -11 7 -23 11 -26 8 -7 -7 -68 53 -68 66 0 7
-10 21 -23 33 -13 12 -36 45 -52 74 -15 29 -32 52 -37 52 -4 0 -8 11 -8 25 0
14 -3 25 -7 25 -5 0 -19 25 -32 55 -14 30 -28 55 -33 55 -4 0 -5 7 -2 15 3 8
2 20 -2 27 -16 25 -13 81 6 105 13 17 17 34 14 56 -3 18 -5 39 -4 47 0 8 1 47
2 85 1 39 6 73 12 77 6 4 4 14 -7 26 -11 12 -13 22 -7 28 16 16 -26 64 -56 64
-13 0 -24 5 -24 10 0 6 -18 10 -40 10 -30 0 -42 5 -51 21 -7 14 -17 19 -30 16
-10 -3 -19 -1 -19 4 0 5 -11 9 -24 9 -32 0 -71 -47 -55 -66 6 -7 12 -33 14
-56 1 -24 9 -64 18 -90 8 -27 12 -48 9 -48 -4 0 -1 -4 7 -9 10 -6 14 -28 13
-70 0 -33 3 -63 9 -66 5 -4 9 -17 9 -31 0 -14 7 -27 15 -30 8 -4 15 -11 15
-16 0 -6 -7 -8 -15 -4 -17 6 -22 -29 -5 -39 5 -3 8 -16 6 -28 -2 -12 1 -28 6
-34 7 -9 5 -26 -6 -54 -9 -22 -14 -44 -11 -49 4 -7 -2 -30 -33 -120 -3 -8 -6
-22 -6 -30 -1 -19 -13 -31 -49 -50 -25 -12 -30 -12 -38 0 -8 12 -12 12 -16 3
-7 -18 -23 -16 -23 2 0 8 -5 15 -11 15 -5 0 -8 4 -4 9 6 11 -33 51 -49 51 -6
0 -27 -4 -46 -10 -36 -10 -53 0 -43 26 2 7 -6 18 -18 25 -21 11 -21 13 -6 24
17 12 17 13 0 19 -15 6 -15 9 -3 17 11 8 12 12 3 16 -7 2 -13 13 -13 24 0 12
-5 16 -15 13 -8 -4 -15 -1 -15 5 0 6 5 11 12 11 6 0 4 8 -6 19 -10 11 -24 17
-32 14 -7 -3 -21 3 -30 12 -14 14 -15 18 -3 25 11 7 11 10 -3 15 -12 5 -15 16
-12 45 2 21 -1 42 -6 45 -11 7 12 35 29 35 6 0 11 5 11 10 0 6 -5 10 -11 10
-5 0 -8 4 -5 9 3 5 -1 14 -9 21 -8 7 -12 16 -9 21 3 5 0 9 -5 9 -6 0 -11 5
-11 10 0 6 7 10 15 10 8 0 16 5 16 10 1 6 2 16 3 23 1 6 -4 22 -11 33 -12 19
-10 25 16 53 21 22 29 41 29 67 0 20 5 40 11 44 13 8 -1 22 -31 33 -10 3 -15
12 -13 19 3 8 -6 29 -20 48 -20 27 -33 35 -60 36 -19 1 -35 -2 -35 -7 0 -5 -9
-9 -20 -9 -17 0 -20 -7 -20 -45 0 -25 -4 -45 -8 -45 -5 0 -8 -25 -7 -56 1 -30
-4 -66 -11 -79 -7 -13 -10 -26 -7 -29 6 -5 -17 -76 -29 -90 -4 -6 -8 -25 -8
-43 0 -18 -4 -33 -9 -33 -4 0 -7 -10 -6 -22 1 -13 -5 -39 -12 -58 -8 -19 -14
-36 -13 -38 3 -10 -14 -52 -21 -52 -13 0 -11 -44 3 -58 7 -7 8 -12 2 -12 -5 0
-15 -15 -22 -33 -6 -17 -21 -37 -33 -42 -12 -6 -30 -31 -40 -57 -22 -57 -79
-113 -122 -122 -17 -3 -38 -13 -48 -22 -9 -8 -26 -16 -38 -17 -11 -1 -21 -5
-21 -9 0 -4 -9 -8 -20 -8 -11 0 -20 4 -20 9 0 9 -25 17 -120 38 -37 9 -70 33
-70 52 0 19 -27 46 -73 75 -17 11 -26 23 -23 32 3 8 0 14 -7 14 -7 0 -14 -12
-15 -27 -3 -34 -10 -41 -18 -17 -4 10 -21 37 -38 59 -17 21 -31 42 -31 46 0 4
-3 11 -7 15 -12 11 -10 36 2 29 6 -3 10 -2 10 3 0 18 -13 21 -28 6 -20 -20
-31 -2 -28 43 1 18 -2 34 -8 36 -5 2 -1 15 10 30 10 14 24 25 30 22 7 -2 21 3
33 12 12 8 29 12 38 9 9 -4 30 5 50 20 40 30 60 35 87 22 30 -16 64 8 58 39
-4 21 -2 25 12 20 17 -7 56 24 56 43 0 6 9 10 20 10 23 0 60 29 60 46 0 7 13
26 29 42 20 20 27 33 21 43 -6 8 -3 20 6 30 8 9 16 27 17 39 1 12 15 36 33 54
22 22 33 45 37 79 4 26 3 47 -3 47 -5 0 -11 9 -15 19 -5 17 -27 28 -74 37 -8
1 -28 13 -44 25 -17 12 -42 22 -56 23 -14 0 -33 9 -42 18 -14 16 -35 18 -163
18 -80 0 -154 -4 -164 -9 -9 -5 -25 -12 -35 -15 -11 -3 -21 -15 -24 -26 -3
-11 -13 -20 -23 -20 -14 0 -18 -7 -15 -25 1 -14 -1 -25 -4 -25 -3 0 -23 -15
-43 -33 -28 -25 -38 -42 -40 -70 -1 -20 -6 -37 -10 -37 -4 0 -8 -11 -8 -24 0
-14 -5 -28 -10 -31 -6 -4 -10 -27 -9 -52 2 -24 -1 -48 -7 -51 -5 -4 -9 -25 -9
-47 1 -22 -5 -50 -12 -62 -11 -19 -11 -29 1 -58 9 -20 11 -37 5 -40 -5 -4 -5
-13 0 -23 4 -9 6 -23 3 -31 -2 -8 6 -22 19 -32 20 -15 21 -19 10 -33 -7 -9
-20 -16 -27 -16 -8 0 -14 -4 -14 -10 0 -9 15 -14 34 -11 19 4 52 -51 51 -84
-1 -19 2 -35 6 -35 5 0 9 -4 9 -10 0 -5 -11 -10 -25 -10 -14 0 -25 -6 -25 -13
0 -25 -44 -56 -85 -59 -34 -3 -43 -9 -68 -45 -15 -24 -44 -50 -63 -59 -18 -9
-34 -20 -34 -24 0 -7 -17 -13 -48 -20 -4 -1 -11 -11 -16 -23 -8 -20 -9 -19
-16 12 -8 34 -4 61 9 61 3 0 7 17 7 39 1 34 -5 45 -59 102 -33 35 -60 67 -59
72 1 4 -2 7 -7 7 -5 0 -11 9 -14 20 -3 13 -14 20 -30 20 -24 0 -25 1 -13 26 8
14 12 42 11 62 -1 20 2 43 8 50 5 7 10 27 9 45 0 17 3 37 9 43 10 12 9 64 -2
64 -4 0 -7 27 -8 60 0 33 -5 69 -11 80 -7 14 -7 22 3 31 13 13 11 54 -3 74 -4
6 -7 27 -6 48 0 20 -2 37 -6 37 -12 0 -9 48 3 56 8 4 7 9 -2 15 -11 6 -9 12 5
28 18 19 18 22 2 46 -9 14 -14 30 -11 34 3 5 0 11 -7 13 -19 7 -58 -3 -52 -13
6 -10 -36 -29 -48 -22 -16 9 -7 30 18 43 l25 14 -23 18 c-13 10 -28 18 -35 18
-7 0 -16 8 -22 18 -8 14 -13 15 -30 5 -25 -16 -34 -16 -26 -3 3 6 -3 10 -14
10 -10 0 -21 -4 -23 -8 -1 -5 -18 -12 -35 -15 -27 -5 -33 -3 -33 10 0 13 -3
14 -12 5 -9 -9 -17 -7 -35 10 -23 21 -23 21 -37 3 -8 -12 -28 -20 -50 -22 -32
-2 -36 1 -36 23 0 18 -4 23 -12 17 -7 -4 -22 -7 -33 -8 -14 0 -21 -8 -23 -27
-2 -16 -9 -28 -18 -28 -8 0 -14 -4 -14 -9 0 -6 -9 -8 -20 -6 -16 3 -20 -2 -20
-21 0 -16 -8 -28 -25 -36 -14 -6 -25 -14 -25 -18 0 -3 -16 -12 -35 -20 -19 -8
-35 -18 -35 -23 0 -5 -6 -4 -14 2 -11 9 -17 8 -28 -4 -29 -35 -52 -55 -62 -54
-25 3 -34 -2 -39 -21 -5 -21 -33 -37 -44 -26 -4 4 -6 34 -5 68 1 40 -3 65 -11
70 -9 6 -9 10 1 16 7 5 15 33 17 63 4 58 8 78 20 123 5 19 4 31 -5 36 -9 6 -7
11 9 19 24 13 29 36 6 28 -24 -10 -29 14 -5 30 14 10 19 20 14 32 -4 9 -8 35
-8 58 -1 32 3 43 16 46 19 5 25 43 7 49 -7 2 -7 12 0 31 15 40 14 60 -3 54 -9
-4 -21 5 -31 19 -16 24 -15 26 4 31 14 3 21 13 21 29 0 13 9 33 20 44 11 11
20 23 20 28 0 4 6 7 14 7 25 0 66 61 66 98 0 26 7 41 28 59 16 13 27 29 24 36
-2 7 1 12 7 12 6 0 11 10 11 22 0 12 10 32 22 45 12 13 17 23 11 23 -6 0 -14
-6 -16 -12 -4 -8 -8 -5 -12 9 -4 11 -16 24 -27 26 -22 6 -16 27 8 27 8 0 14 5
14 10 0 6 9 10 20 10 11 0 20 -4 20 -10 0 -20 25 -9 37 15 10 22 8 27 -8 35
-28 16 -25 43 4 34 12 -3 27 -10 33 -15 15 -12 25 36 11 50 -8 8 -3 19 16 39
15 15 27 38 27 49 0 12 4 24 8 27 10 6 8 93 -1 103 -4 3 -7 15 -7 25 0 26 -40
72 -138 158 -22 19 -43 45 -46 57 -15 57 -150 76 -238 33 -16 -7 -28 -17 -28
-22 0 -4 -7 -8 -16 -8 -9 0 -29 -12 -45 -27 -25 -25 -29 -35 -29 -85 0 -31 -4
-60 -10 -63 -5 -3 -10 -29 -10 -57 0 -40 -3 -49 -15 -44 -20 7 -20 -20 0 -58
8 -15 15 -38 15 -50 0 -12 4 -26 10 -32 5 -5 10 -48 11 -94 2 -47 7 -91 12
-97 6 -9 5 -18 -2 -27 -9 -10 -9 -16 -1 -21 6 -4 9 -12 7 -18 -2 -7 0 -20 5
-31 12 -23 17 -76 7 -76 -14 0 -15 -71 -1 -82 11 -10 11 -13 -2 -20 -8 -5 -13
-15 -10 -22 3 -8 -5 -25 -17 -37 -15 -15 -18 -24 -11 -27 19 -6 14 -35 -12
-65 -14 -16 -22 -35 -19 -43 3 -8 -1 -14 -11 -14 -9 0 -16 -4 -16 -10 0 -5 -6
-10 -14 -10 -20 0 -30 -18 -18 -33 15 -17 -20 -58 -39 -46 -20 13 -29 11 -29
-5 0 -8 -6 -16 -12 -19 -10 -3 -10 -7 -1 -17 15 -17 -51 -85 -74 -76 -30 12
-42 -10 -28 -52 14 -40 12 -52 -11 -52 -8 0 -13 4 -10 9 3 5 -1 11 -9 15 -10
3 -17 -3 -21 -19 -4 -16 -18 -29 -40 -37 -42 -15 -50 -35 -24 -58 17 -14 18
-19 6 -23 -8 -3 -26 -4 -39 -2 -31 6 -65 -28 -48 -48 8 -11 6 -18 -8 -31 -11
-10 -25 -15 -30 -11 -12 7 -41 -17 -41 -34 0 -6 -7 -11 -16 -11 -10 0 -13 -6
-9 -19 4 -13 0 -20 -14 -24 -25 -6 -40 4 -44 33 -3 22 -37 39 -37 19 0 -17
-25 -4 -30 16 -5 17 -16 20 -73 23 -37 2 -67 7 -67 12 0 6 -7 10 -15 10 -8 0
-15 -4 -15 -10 0 -5 -7 -10 -16 -10 -9 0 -25 -10 -35 -22 -11 -11 -19 -16 -19
-10 0 14 -36 16 -44 3 -4 -5 -18 -8 -34 -6 -15 2 -34 -1 -43 -6 -12 -6 -23 -1
-39 16 -13 14 -28 25 -32 25 -13 0 -38 26 -38 39 0 6 5 11 11 11 8 0 8 4 2 13
-5 6 -11 29 -12 50 -1 31 2 40 18 44 22 6 18 33 -5 33 -8 0 -14 5 -14 10 0 6
-7 10 -15 10 -8 0 -15 5 -15 12 0 6 3 8 7 5 4 -4 19 5 34 19 22 21 26 31 18
45 -5 11 -19 19 -29 19 -11 0 -20 5 -20 10 0 14 -56 13 -79 -2 -15 -9 -25 -9
-46 0 -37 17 -65 15 -65 -4 0 -9 -7 -22 -17 -29 -30 -22 -21 -118 18 -200 32
-67 48 -155 28 -155 -5 0 -9 -9 -9 -20 0 -11 -8 -29 -17 -40 -10 -11 -16 -23
-15 -27 2 -3 -2 -9 -9 -14 -10 -6 -10 -10 0 -23 11 -13 8 -20 -17 -44 -23 -23
-30 -38 -30 -70 0 -23 -4 -48 -9 -54 -4 -7 -9 -24 -11 -38 -2 -14 -10 -29 -18
-33 -8 -4 -14 -14 -14 -21 0 -8 -7 -16 -15 -20 -8 -3 -15 -14 -15 -25 0 -18
-29 -59 -105 -146 -22 -25 -31 -43 -25 -49 16 -16 12 -26 -16 -36 -14 -6 -28
-19 -31 -30 -3 -11 -12 -20 -19 -20 -8 0 -14 -6 -14 -13 0 -7 -17 -30 -38 -50
-34 -33 -43 -37 -77 -33 -21 3 -43 10 -48 15 -6 6 -35 11 -63 11 -29 0 -55 4
-58 9 -3 4 -19 11 -36 14 -20 5 -30 12 -30 25 0 10 -5 23 -12 30 -11 11 -13
20 -19 90 -2 18 -7 36 -12 39 -4 2 -3 11 4 19 10 12 8 16 -8 20 -12 4 -20 13
-19 22 2 10 -4 22 -13 29 -11 8 -12 12 -3 13 15 0 16 40 0 40 -6 0 -8 3 -5 7
4 3 -3 18 -15 31 -16 17 -19 26 -10 29 6 3 12 10 12 18 0 7 7 18 15 25 15 13
11 35 -6 25 -5 -4 -9 -1 -9 4 0 6 7 11 15 11 17 0 20 16 6 24 -9 6 8 66 19 66
3 0 6 16 7 35 1 28 -3 35 -17 35 -23 0 -35 33 -21 58 6 11 7 22 4 26 -3 3 1 6
10 6 9 0 19 -4 22 -10 10 -16 25 -11 25 8 0 10 -14 31 -30 47 -22 21 -27 31
-18 37 10 6 10 10 -1 17 -9 6 -10 11 -2 15 16 11 13 26 -4 20 -10 -4 -15 0
-15 10 0 9 -8 20 -17 23 -10 4 -21 10 -24 15 -3 5 -16 11 -29 13 -13 3 -45 25
-70 50 -25 25 -49 45 -53 45 -4 0 -20 8 -34 18 -15 9 -39 17 -53 18 -14 0 -38
6 -54 13 -22 9 -31 9 -36 0 -6 -8 -9 -8 -12 1 -2 7 -25 18 -51 25 -38 10 -51
9 -67 -2 -22 -16 -120 -25 -120 -12 0 5 -18 9 -40 9 -28 0 -40 -4 -38 -13 3
-14 -36 -57 -53 -57 -14 0 -69 -61 -69 -78 0 -7 -6 -12 -12 -10 -18 3 -60 -12
-75 -28 -7 -7 -13 -22 -13 -33 0 -12 -4 -21 -10 -21 -5 0 -10 -8 -10 -18 0
-10 -3 -22 -7 -26 -4 -3 -8 -17 -10 -29 -2 -12 -6 -29 -10 -37 -3 -8 -6 -29
-7 -47 -1 -17 -4 -35 -8 -39 -5 -4 -8 -16 -8 -26 0 -10 -4 -18 -10 -18 -5 0
-10 -13 -10 -30 0 -16 -4 -30 -9 -30 -5 0 -7 -17 -6 -37 2 -21 0 -43 -6 -49
-5 -6 -11 -29 -14 -50 -9 -74 -17 -104 -29 -104 -6 0 -2 -8 9 -16 13 -11 16
-18 8 -21 -7 -2 -9 -11 -6 -19 3 -8 0 -14 -7 -14 -9 0 -11 -10 -6 -30 6 -31
-10 -43 -20 -15 -14 36 -63 5 -94 -60 -8 -16 -23 -37 -32 -46 -10 -9 -15 -18
-13 -21 3 -3 -10 -20 -28 -39 -18 -19 -36 -42 -40 -51 -3 -10 -11 -18 -17 -18
-6 0 -32 -21 -58 -46 -49 -48 -126 -88 -190 -100 -20 -4 -44 -10 -53 -15 -9
-4 -38 -11 -65 -15 -27 -3 -52 -8 -56 -10 -4 -2 -9 0 -13 6 -3 5 -19 10 -35
10 -16 0 -32 5 -36 11 -4 7 -20 9 -40 6 -22 -4 -37 -1 -45 9 -9 11 -15 12 -25
3 -9 -7 -19 -8 -26 -2 -7 5 -35 8 -62 7 -37 -2 -63 5 -106 27 -32 16 -61 29
-64 29 -4 0 -17 11 -30 25 -13 14 -28 25 -33 25 -5 0 -21 12 -35 28 -47 50
-95 92 -105 92 -19 0 -141 147 -135 163 1 5 -9 22 -23 39 -14 16 -25 34 -25
39 0 20 -2 25 -16 47 -8 12 -12 22 -9 22 2 0 -4 16 -15 35 -11 20 -20 46 -20
60 0 13 -5 27 -11 30 -5 4 -9 17 -7 28 1 12 -2 29 -7 37 -5 8 -10 22 -11 30 0
8 -4 22 -7 30 -16 38 -15 79 1 85 15 6 15 8 -3 21 -28 21 -32 71 -5 79 16 5
18 10 9 26 -8 15 -7 25 2 37 11 14 11 15 -1 5 -21 -19 -33 -16 -27 8 3 12 0
22 -8 25 -8 3 -11 12 -8 20 3 9 12 13 19 10 8 -3 14 1 14 9 0 8 -4 15 -10 15
-5 0 -8 27 -8 60 1 33 5 60 10 60 5 0 8 18 6 40 -1 22 3 45 10 52 16 16 15 28
-3 28 -19 0 -19 5 2 36 14 22 14 29 4 46 -9 15 -10 23 -2 31 14 14 14 30 1 22
-5 -3 -10 -1 -10 5 0 15 23 54 38 63 6 4 12 14 12 21 0 7 8 20 19 30 10 9 18
27 17 39 -1 12 2 36 7 52 14 50 19 69 24 95 2 14 9 35 15 47 6 12 8 29 5 37
-3 8 0 22 9 30 8 8 14 19 13 23 -4 13 13 67 27 87 7 10 10 25 7 32 -3 8 -1 14
4 14 6 0 10 13 11 29 0 17 6 39 12 50 6 12 9 21 6 21 -3 0 1 15 8 33 7 17 11
38 9 45 -3 6 -1 12 4 12 5 0 15 20 22 45 7 25 17 45 22 45 5 0 8 3 7 8 -2 7
26 54 47 79 5 6 24 28 40 49 17 20 47 55 68 78 20 22 37 44 37 48 0 11 43 53
53 53 5 0 14 8 21 18 16 20 46 23 46 3 0 -17 27 -29 43 -19 18 11 147 13 147
2 0 -5 8 -9 19 -9 10 0 30 -9 44 -20 14 -11 32 -20 40 -20 8 0 20 -7 27 -15 6
-8 15 -14 18 -13 16 3 42 -15 42 -28 0 -8 9 -24 20 -36 10 -12 17 -25 14 -30
-9 -14 27 -49 45 -43 11 3 23 -10 39 -43 12 -26 22 -56 22 -67 0 -11 6 -32 14
-47 10 -19 11 -29 3 -37 -8 -8 -6 -11 7 -11 15 0 16 -3 7 -14 -7 -8 -21 -12
-34 -8 -20 5 -20 4 -8 -11 7 -9 11 -18 7 -18 -3 -1 -10 -3 -16 -4 -5 -1 -13
-3 -17 -4 -5 -1 -2 -5 6 -10 12 -7 12 -13 3 -24 -7 -7 -9 -16 -6 -20 3 -3 -5
-8 -18 -12 -32 -10 -61 -37 -48 -45 7 -4 6 -15 -3 -33 -8 -15 -17 -24 -21 -20
-4 4 -9 -3 -13 -15 -3 -12 -12 -22 -20 -22 -8 0 -17 -9 -20 -20 -3 -11 -12
-20 -19 -20 -8 0 -14 -5 -14 -11 0 -5 -4 -7 -10 -4 -5 3 -10 -3 -10 -14 0 -12
-5 -21 -10 -21 -6 0 -8 -11 -4 -25 5 -19 2 -25 -11 -25 -18 0 -45 -23 -45 -39
0 -10 -19 -15 -46 -12 -6 1 -19 -8 -29 -19 -10 -11 -25 -20 -34 -20 -13 -1
-13 -3 3 -15 11 -8 14 -16 8 -16 -7 -1 -18 -2 -24 -3 -11 -1 -40 -47 -51 -81
-2 -6 -13 -5 -28 3 -21 11 -30 10 -66 -8 -24 -11 -43 -26 -43 -33 0 -7 -15
-19 -34 -27 -19 -7 -37 -21 -39 -32 -3 -12 -11 -16 -21 -12 -9 3 -16 1 -16 -5
0 -6 -7 -11 -16 -11 -9 0 -14 -6 -11 -14 5 -12 -25 -46 -41 -46 -6 0 -44 -74
-46 -91 -1 -3 -9 -13 -19 -23 -26 -27 -21 -36 21 -36 21 0 44 -6 50 -12 8 -8
15 -9 20 -3 11 16 50 35 72 35 10 0 40 14 65 32 41 29 74 33 47 6 -39 -39 14
-36 56 3 17 16 32 27 32 24 0 -8 60 34 80 56 8 9 25 19 38 23 12 4 22 12 22
17 0 5 8 9 18 9 9 0 33 14 52 30 19 16 38 30 43 30 4 0 7 6 7 13 0 8 11 20 25
27 14 7 25 18 25 24 0 7 9 18 20 26 11 8 20 20 20 27 0 17 17 17 23 1 3 -8 6
-6 6 5 1 9 5 17 10 17 5 0 17 17 27 39 9 21 28 46 43 55 58 35 67 46 51 56
-13 8 -11 11 7 16 12 3 24 17 28 32 3 14 14 31 22 37 9 7 18 23 20 35 2 13 8
29 14 36 5 6 9 16 8 20 -4 22 2 34 18 34 13 0 14 3 6 11 -7 7 -8 18 -3 28 18
36 30 68 41 111 6 25 14 52 17 60 9 25 8 110 -1 110 -5 0 -6 8 -2 18 11 24 12
72 4 105 -4 15 -5 27 -1 27 4 0 7 11 7 25 0 18 -7 27 -29 35 -23 8 -27 13 -18
22 18 18 15 37 -10 68 -13 15 -30 37 -38 49 -8 11 -20 21 -26 21 -6 0 -17 7
-24 15 -7 9 -19 14 -26 11 -8 -3 -20 1 -28 9 -8 8 -20 15 -26 15 -6 0 -15 11
-20 25 -5 14 -14 25 -20 25 -5 0 -10 9 -10 20 0 11 -4 20 -9 20 -5 0 -11 9
-14 20 -6 22 -36 27 -55 8 -9 -9 -15 -9 -24 1 -10 11 -10 14 0 18 19 7 14 23
-8 23 -11 0 -20 6 -20 13 0 8 -3 7 -10 -3 -8 -13 -11 -13 -22 2 -12 16 -26 18
-95 17 -51 0 -79 4 -90 13 -9 7 -18 7 -28 -2 -8 -7 -21 -10 -29 -7 -8 3 -20
-1 -27 -9 -9 -11 -14 -12 -19 -3 -5 7 -13 8 -21 3 -8 -5 -25 -9 -39 -10 -47
-3 -51 -4 -46 -13 3 -5 -8 -14 -26 -20 -17 -6 -37 -20 -45 -31 -8 -11 -23 -20
-34 -20 -10 0 -19 -4 -19 -10 0 -5 -7 -10 -15 -10 -8 0 -15 -7 -15 -15 0 -8
-7 -15 -15 -15 -8 0 -23 -13 -34 -30 -10 -16 -21 -27 -25 -23 -4 4 -9 -2 -12
-14 -3 -12 -14 -23 -25 -26 -10 -3 -22 -13 -26 -24 -3 -10 -17 -32 -30 -49
-13 -17 -23 -34 -23 -38 0 -4 -20 -28 -45 -54 -25 -26 -43 -53 -40 -59 2 -7
-2 -13 -11 -13 -12 0 -13 -4 -3 -21 9 -17 7 -25 -11 -44 -16 -17 -18 -24 -8
-28 10 -4 9 -8 -4 -18 -16 -12 -21 -33 -27 -96 0 -7 -8 -13 -16 -13 -8 0 -15
-8 -15 -17 0 -10 -27 -47 -60 -81 -59 -63 -76 -104 -47 -115 9 -4 9 -8 1 -14
-6 -4 -12 -30 -12 -56 -1 -28 -7 -54 -17 -63 -12 -12 -13 -20 -4 -37 9 -15 9
-22 1 -25 -6 -2 -9 -9 -6 -16 3 -7 -2 -19 -11 -26 -12 -10 -13 -16 -4 -27 7
-7 9 -16 6 -20 -3 -3 0 -18 8 -33 12 -24 12 -28 -6 -40 -10 -8 -19 -26 -19
-40 -1 -32 -25 -64 -41 -54 -9 5 -10 2 -4 -12 12 -29 13 -87 2 -109 -6 -11 -9
-36 -9 -57 1 -28 -4 -41 -20 -52 -21 -15 -24 -14 -55 16 -18 18 -33 28 -33 23
0 -5 -22 13 -50 40 -28 27 -50 55 -50 62 0 7 -5 13 -11 13 -14 0 -149 137
-149 150 0 6 -5 10 -10 10 -6 0 -20 9 -32 20 -12 10 -24 17 -28 15 -11 -7 -50
43 -50 63 0 10 -5 23 -12 30 -7 7 -9 12 -5 12 4 0 2 10 -5 23 -7 12 -12 25
-13 29 0 4 -8 17 -18 29 -10 11 -16 27 -13 35 3 8 2 14 -3 14 -4 0 -12 10 -18
23 -6 12 -16 34 -23 49 -11 22 -11 30 0 43 7 8 10 18 7 22 -4 3 -1 15 5 27 13
25 15 66 4 85 -5 7 -5 16 0 20 11 8 11 32 0 50 -5 7 -5 16 0 20 10 6 17 30 15
46 -2 18 -8 50 -15 75 -3 14 -7 46 -9 71 -2 25 -11 58 -20 73 -14 21 -15 29
-5 46 7 11 16 20 20 20 5 0 8 6 8 14 0 7 7 19 15 26 11 9 12 16 5 25 -8 9 -7
14 2 17 10 4 10 8 1 19 -10 12 -8 17 8 27 10 7 19 23 19 37 0 14 5 25 11 25 6
0 8 7 5 17 -4 10 2 25 15 39 16 17 19 27 11 36 -6 8 -9 31 -7 53 4 52 4 52 14
36 12 -19 41 -6 41 19 0 11 7 20 15 20 18 0 18 2 3 35 -7 16 -8 29 -2 33 19
14 34 53 34 87 0 19 4 35 10 35 5 0 17 25 25 55 9 30 21 57 26 60 5 4 9 19 9
36 0 16 4 29 9 29 5 0 8 8 7 17 -3 22 33 124 51 141 7 8 11 22 8 32 -4 13 1
20 17 26 30 9 53 43 50 71 -2 15 2 23 11 23 13 0 31 33 28 52 0 4 11 15 27 25
15 10 29 20 32 23 3 3 12 5 20 5 8 0 16 10 18 23 2 12 10 22 18 22 8 0 14 5
14 10 0 6 6 10 13 10 7 0 21 11 31 25 10 14 27 25 37 25 11 0 19 6 19 13 0 8
9 22 20 32 11 10 20 23 20 29 0 6 13 22 29 35 19 16 27 30 23 43 -3 13 0 19 9
18 26 -4 57 12 62 30 3 10 23 28 44 39 24 12 45 32 52 49 14 33 55 76 74 78 7
0 18 2 25 2 6 1 12 10 12 21 0 16 30 35 52 32 4 0 10 8 13 20 4 12 19 22 37
26 16 3 32 12 35 19 2 7 11 10 19 7 7 -3 17 2 20 11 3 9 16 16 29 16 12 0 30
9 40 20 10 11 13 20 7 20 -7 0 -12 5 -12 11 0 6 5 9 12 7 14 -5 58 35 58 52 0
6 10 8 23 5 15 -4 28 -1 36 9 8 9 20 16 27 16 8 0 15 6 15 13 1 6 2 18 3 26 0
8 7 16 15 19 8 3 11 0 7 -7 -4 -6 -1 -11 7 -11 21 0 77 55 77 74 0 9 5 16 11
16 5 0 8 4 5 9 -3 5 5 16 18 24 13 9 39 30 57 47 19 18 44 39 57 47 12 8 22
22 22 30 0 7 6 13 14 11 18 -4 20 1 10 26 -4 10 -2 21 5 26 7 4 12 10 12 14
-3 19 1 23 25 20 16 -1 35 5 47 17 11 10 27 19 34 19 7 0 13 7 13 15 0 15 3
16 40 19 10 0 38 19 62 42 24 22 55 46 70 54 15 7 25 17 22 21 -3 5 10 25 28
45 18 20 31 42 29 48 -2 6 -3 19 -3 30 1 10 -10 33 -23 50 -19 26 -21 33 -9
44 7 6 17 12 22 12 16 0 72 63 72 81 0 18 -11 25 -22 14z m-421 -315 c3 -11 9
-20 14 -20 5 0 6 -7 2 -16 -3 -8 -11 -13 -18 -11 -6 3 -17 -4 -23 -14 -7 -10
-19 -19 -26 -19 -8 0 -17 -9 -21 -19 -3 -10 -13 -21 -23 -25 -9 -3 -25 -11
-34 -18 -21 -15 -35 -4 -19 16 7 8 10 20 6 26 -3 5 1 10 9 10 9 0 16 5 16 10
0 6 6 10 14 10 9 0 12 7 9 20 -4 14 0 20 11 20 18 0 22 15 6 25 -18 11 -2 22
36 23 28 1 37 -3 41 -18z m-663 -2616 c16 -16 12 -39 -4 -29 -5 3 -7 -3 -5
-14 3 -14 -1 -18 -11 -14 -10 4 -12 0 -8 -11 3 -9 1 -22 -5 -30 -6 -7 -8 -16
-4 -19 3 -4 -1 -7 -10 -7 -9 0 -16 -3 -16 -7 4 -22 -3 -32 -19 -30 -11 0 -19
10 -20 26 -1 14 -6 27 -11 31 -14 8 -8 36 11 57 9 10 18 22 20 28 2 5 12 10
22 11 11 0 22 6 24 12 5 16 18 15 36 -4z m4851 -105 c15 -33 22 -39 40 -35 30
8 34 0 22 -40 -7 -22 -17 -34 -29 -34 -11 0 -18 -7 -18 -20 0 -14 6 -20 17
-18 25 4 30 -41 20 -192 -10 -164 -18 -211 -43 -235 -60 -60 -84 -30 -77 95 4
63 1 83 -19 127 -12 29 -28 53 -34 53 -7 0 -14 7 -18 15 -3 9 0 15 9 15 22 0
27 17 10 33 -18 18 -20 31 -4 21 17 -10 29 17 18 38 -6 10 -7 23 -3 29 4 6 1
14 -5 18 -8 5 -6 15 9 33 11 15 20 36 20 47 0 31 40 90 61 91 3 0 14 -18 24
-41z m-2859 -1418 c8 7 14 7 19 -1 3 -5 15 -10 26 -10 10 0 19 -6 19 -12 0
-13 44 -38 67 -38 16 0 85 -70 100 -102 14 -32 14 -211 -1 -220 -8 -6 -7 -8 2
-8 10 0 10 -5 1 -21 -6 -12 -9 -34 -7 -51 3 -16 1 -31 -4 -34 -5 -3 -6 -9 -3
-14 3 -5 -1 -20 -10 -34 -11 -16 -13 -26 -6 -31 18 -11 12 -23 -11 -27 -16 -2
-22 -9 -20 -21 2 -10 -6 -27 -17 -37 -19 -15 -19 -19 -6 -30 19 -15 19 -30 2
-30 -16 0 -35 -38 -31 -62 1 -10 -2 -18 -7 -18 -5 0 -9 -9 -9 -20 0 -14 -7
-20 -22 -20 -12 0 -19 -3 -15 -6 9 -9 -18 -79 -32 -80 -6 -1 -17 -2 -25 -3
-10 -1 -13 -9 -10 -26 3 -20 0 -25 -15 -25 -28 0 -91 -39 -91 -56 0 -10 -13
-14 -45 -14 -32 0 -45 4 -45 14 0 8 -11 17 -25 20 -18 5 -25 13 -25 32 0 21
-4 24 -20 19 -15 -5 -20 -2 -20 10 0 12 -6 16 -20 12 -12 -3 -20 0 -20 8 0 7
-8 19 -19 26 -25 19 -37 69 -16 69 8 0 15 7 15 16 0 11 -6 14 -20 9 -11 -3
-20 -2 -20 4 0 5 -3 16 -6 25 -4 11 -1 16 10 16 9 0 16 -5 16 -11 0 -5 5 -7
10 -4 16 10 11 56 -7 74 -20 18 -29 61 -13 61 6 0 10 15 10 34 0 19 6 36 13
39 10 4 10 7 0 18 -15 16 -17 55 -3 64 14 9 12 51 -2 75 -11 17 -10 22 2 30
12 8 11 11 -7 16 -28 8 -29 23 -2 70 11 20 18 42 15 49 -2 7 4 27 15 44 10 17
19 42 19 54 0 28 22 77 34 77 15 0 56 42 56 57 0 7 5 13 10 13 6 0 10 -6 10
-12 0 -9 4 -8 10 2 7 10 13 11 18 5 8 -12 86 -14 98 -2 4 4 16 7 26 7 10 0 18
5 18 12 0 9 3 9 12 0 8 -8 15 -8 24 -1z m4738 -235 c15 -9 27 -26 27 -39 3
-60 -1 -90 -14 -105 -8 -10 -20 -32 -28 -49 -8 -20 -21 -33 -31 -33 -10 0 -18
-4 -18 -10 0 -5 -7 -10 -15 -10 -8 0 -15 -7 -15 -15 0 -8 -5 -15 -10 -15 -6 0
-29 -12 -53 -27 -23 -15 -45 -26 -49 -25 -5 1 -8 -2 -8 -7 0 -10 -32 -21 -80
-28 -19 -3 -37 -8 -40 -12 -8 -10 -30 -7 -29 4 3 18 12 40 21 46 9 6 -10 59
-22 59 -15 0 -6 36 13 53 19 16 19 20 7 58 -9 27 -10 43 -3 47 5 4 13 20 17
35 5 20 12 27 21 23 8 -3 24 5 35 17 18 18 24 20 40 9 14 -8 20 -9 20 -1 0 6
9 18 21 28 29 23 157 21 193 -3z"/>
<path d="M9865 10483 c-11 -3 -25 -13 -32 -22 -10 -13 -7 -20 18 -43 16 -14
28 -31 27 -36 -3 -10 39 -52 53 -52 4 0 18 -10 31 -22 13 -13 37 -30 53 -38
17 -8 32 -17 35 -21 9 -10 85 -54 90 -52 3 1 15 -7 28 -18 34 -29 77 -31 103
-3 21 22 21 24 3 41 -9 10 -19 17 -21 16 -3 -3 -4 3 -2 12 6 22 0 34 -28 59
-18 15 -33 33 -33 40 0 18 -93 106 -112 106 -9 0 -19 9 -23 19 -5 16 -13 19
-53 15 -26 -2 -57 -6 -69 -9 -12 -3 -25 -1 -28 5 -7 11 -8 11 -40 3z"/>
<path d="M11835 10360 c-3 -5 -1 -10 4 -10 6 0 11 5 11 10 0 6 -2 10 -4 10 -3
0 -8 -4 -11 -10z"/>
<path d="M11858 10333 c6 -2 12 -11 12 -19 0 -8 5 -14 10 -14 6 0 10 4 10 8 0
12 -22 32 -34 31 -6 0 -5 -3 2 -6z"/>
<path d="M10366 10181 c-4 -7 -5 -15 -2 -18 9 -9 19 4 14 18 -4 11 -6 11 -12
0z"/>
<path d="M10387 10072 c-9 -10 -14 -22 -10 -27 5 -4 -1 -5 -12 -1 -23 8 -25 9
-42 7 -15 -1 -18 -31 -3 -31 6 0 9 -3 9 -7 -3 -17 1 -33 9 -31 17 3 42 -15 42
-32 0 -10 16 -31 35 -47 19 -17 35 -35 35 -42 0 -10 13 -15 31 -13 4 1 34 -27
67 -62 34 -35 68 -66 76 -69 15 -6 16 -23 3 -44 -9 -15 66 -88 113 -110 42
-20 190 -166 190 -188 0 -8 7 -15 15 -15 8 0 15 -4 15 -10 0 -15 42 -50 53
-43 6 4 8 -2 5 -15 -5 -16 5 -33 33 -64 22 -24 52 -61 67 -83 15 -22 34 -47
42 -55 18 -18 36 -47 49 -75 5 -12 16 -26 24 -33 21 -18 61 -113 58 -139 -1
-13 5 -30 13 -39 9 -8 14 -19 11 -24 -3 -5 -1 -11 5 -15 5 -3 10 -15 10 -25 0
-10 3 -20 8 -22 7 -3 50 -131 72 -218 7 -25 15 -54 19 -65 4 -11 7 -40 6 -64
-1 -35 3 -45 17 -49 10 -2 18 -12 18 -21 0 -19 22 -71 30 -71 3 0 5 -35 4 -78
0 -42 4 -82 9 -89 13 -18 14 -112 2 -131 -6 -9 -10 -35 -8 -57 1 -22 3 -44 4
-50 0 -5 -2 -19 -4 -30 -2 -11 0 -25 5 -32 16 -19 15 -173 0 -185 -11 -9 -11
-13 0 -19 10 -6 10 -11 1 -20 -6 -6 -9 -17 -7 -24 3 -7 0 -16 -6 -20 -8 -5 -8
-11 -1 -19 8 -10 5 -18 -9 -31 -11 -10 -20 -22 -20 -27 0 -5 -11 -19 -25 -32
-14 -13 -25 -28 -25 -35 0 -6 -16 -17 -35 -25 -45 -19 -47 -46 -4 -46 30 0 69
-30 69 -53 0 -5 12 -20 26 -32 22 -19 31 -21 55 -13 16 5 29 14 29 19 0 5 7 9
15 9 8 0 15 6 15 14 0 8 9 18 20 21 14 4 20 15 20 35 0 16 6 35 13 42 16 15
19 78 4 78 -6 0 -6 5 0 13 6 6 13 26 17 42 4 17 9 37 12 46 3 11 -3 19 -18 23
-13 3 -19 9 -13 13 6 5 17 21 25 36 11 23 11 30 1 36 -8 5 -12 33 -12 82 0
103 -1 123 -12 130 -4 3 1 22 12 42 11 19 17 37 15 40 -3 3 -1 28 4 56 5 28 6
51 2 51 -4 0 -5 11 -3 24 4 17 -1 28 -15 37 -17 10 -18 16 -8 32 8 15 8 21 -2
24 -9 4 -10 8 -2 18 8 10 7 23 -4 49 -8 20 -11 38 -6 41 5 3 5 17 -2 33 -5 15
-10 44 -9 65 0 20 -3 37 -9 37 -20 0 -31 39 -18 61 10 17 10 23 1 26 -7 3 -13
15 -13 28 0 13 -5 27 -10 30 -6 4 -8 10 -5 15 3 5 1 11 -4 15 -6 3 -8 12 -4
20 3 8 0 15 -7 15 -7 0 -10 6 -7 14 3 8 -3 23 -14 35 -12 13 -17 26 -12 34 17
27 -11 81 -39 75 -7 -2 -14 8 -16 22 -1 14 -8 35 -14 47 -6 12 -8 28 -5 36 3
8 1 19 -4 24 -5 5 -12 20 -15 34 -3 13 -8 35 -11 49 -7 29 -52 72 -66 63 -6
-4 -8 5 -5 20 3 18 0 28 -11 32 -13 5 -13 8 -2 14 11 7 9 11 -7 20 -29 15 -41
80 -18 93 18 10 22 48 5 48 -6 0 -22 9 -36 19 -13 11 -31 17 -39 14 -10 -4
-14 4 -14 31 0 36 -6 41 -51 37 -23 -2 -33 29 -15 47 13 13 11 18 -14 42 -16
15 -26 30 -23 34 4 4 -3 9 -15 13 -12 3 -22 11 -22 17 0 7 -13 25 -30 41 -16
16 -30 25 -30 21 0 -4 -7 -1 -15 8 -8 8 -15 21 -15 28 0 8 -21 36 -47 62 -34
35 -43 50 -33 56 9 6 7 11 -11 20 -17 10 -24 10 -27 1 -6 -19 -32 -12 -32 9 0
25 -17 54 -53 94 -21 22 -30 27 -39 18 -20 -20 -31 -13 -25 17 6 28 -2 36 -45
45 -3 0 -10 4 -14 9 -13 12 -24 8 -18 -8 10 -26 -15 -16 -33 13 -23 37 -59 72
-75 72 -8 0 -22 16 -32 35 -17 32 -23 35 -62 35 -23 0 -44 5 -46 11 -2 6 -11
2 -21 -9z"/>
<path d="M9255 9190 c-3 -5 -1 -10 4 -10 6 0 11 5 11 10 0 6 -2 10 -4 10 -3 0
-8 -4 -11 -10z"/>
<path d="M8942 9052 c-12 -8 -22 -21 -22 -28 0 -8 -9 -14 -20 -14 -26 0 -39
-34 -30 -77 10 -42 -7 -54 -31 -22 -10 13 -19 19 -19 13 0 -7 -17 -19 -37 -27
-21 -9 -32 -16 -25 -16 18 -1 15 -17 -14 -60 -14 -22 -27 -57 -28 -78 -5 -57
-17 -93 -31 -93 -7 0 -20 -12 -30 -26 -12 -18 -20 -23 -29 -15 -16 13 -56 3
-56 -15 0 -8 -7 -14 -15 -14 -8 0 -15 -4 -15 -10 0 -5 -7 -10 -15 -10 -8 0
-15 3 -15 8 0 4 -10 13 -22 21 -19 12 -23 11 -35 -5 -7 -10 -14 -13 -14 -6 -1
7 -2 18 -3 25 -2 22 -86 4 -86 -18 0 -10 -10 -12 -35 -8 -25 4 -35 2 -35 -8 0
-9 -3 -10 -11 -2 -12 12 -59 -5 -59 -21 0 -5 -7 -3 -16 5 -13 10 -17 10 -25
-2 -5 -8 -9 -9 -9 -3 0 7 -10 14 -22 18 -26 6 -34 4 -31 -6 2 -5 -6 -13 -16
-20 -10 -6 -17 -17 -14 -25 3 -7 -2 -15 -10 -19 -13 -5 -13 -9 0 -35 14 -27
13 -32 -2 -49 -14 -16 -15 -23 -6 -34 9 -11 9 -20 2 -34 -6 -11 -8 -22 -4 -25
3 -4 -1 -9 -10 -13 -9 -3 -13 -12 -10 -20 3 -8 0 -20 -6 -28 -6 -7 -7 -16 -3
-20 4 -4 7 -11 7 -14 1 -4 6 -16 12 -27 6 -11 11 -24 12 -30 0 -5 8 -18 16
-28 8 -9 15 -21 15 -25 0 -4 21 -29 45 -55 25 -26 45 -52 45 -58 0 -7 10 -9
23 -5 18 4 27 0 36 -17 11 -22 61 -32 61 -13 0 5 11 -3 25 -18 17 -18 34 -26
59 -26 19 0 38 -5 41 -10 5 -8 11 -8 20 0 16 14 67 16 86 5 17 -11 59 -13 59
-3 0 4 20 8 45 8 25 0 45 4 45 8 0 5 7 9 15 9 8 0 15 -3 15 -7 0 -4 6 -7 14
-7 7 0 13 7 12 15 -2 24 59 24 80 1 18 -20 54 -26 54 -9 0 6 12 10 26 10 19 0
25 4 21 14 -7 17 9 33 38 38 12 2 20 -3 20 -12 0 -19 7 -21 45 -14 31 7 39 19
18 26 -8 3 -5 12 9 27 16 17 30 22 52 19 18 -3 29 0 28 6 -1 6 10 12 26 14 15
2 27 -1 27 -7 0 -6 5 -11 11 -11 19 0 39 28 33 45 -4 9 -3 15 2 14 5 -1 22 3
38 10 19 8 26 16 22 27 -3 8 3 25 14 36 11 12 20 34 20 50 0 30 14 38 24 13 7
-19 26 -20 26 -1 0 7 13 23 29 35 19 15 28 30 26 42 -2 10 0 19 6 19 5 0 9 7
9 15 0 8 9 15 19 15 13 0 23 11 31 35 6 19 16 35 21 35 6 0 7 5 4 11 -4 6 7
24 23 41 17 16 34 38 37 49 7 22 -10 49 -32 49 -16 0 -16 66 0 88 6 8 6 12 -2
12 -7 0 -11 20 -11 53 0 53 -40 157 -61 157 -5 0 -9 9 -9 20 0 11 -4 20 -10
20 -5 0 -10 6 -10 14 0 7 -9 16 -21 19 -11 3 -23 15 -26 26 -3 12 -20 26 -39
33 -19 7 -34 16 -34 21 0 5 -9 7 -21 4 -12 -3 -22 0 -26 9 -4 10 -9 11 -18 4
-6 -5 -15 -6 -19 -2 -14 13 -200 9 -214 -5 -17 -17 -27 -16 -44 1 -11 11 -17
11 -36 -2z"/>
<path d="M1426 8954 c-7 -18 0 -34 15 -34 5 0 9 11 9 25 0 28 -15 34 -24 9z"/>
<path d="M12947 8953 c-3 -5 -2 -15 2 -22 5 -7 11 -9 14 -4 3 5 2 15 -2 22 -5
7 -11 9 -14 4z"/>
<path d="M8167 8613 c-13 -13 -7 -32 8 -27 8 4 15 12 15 20 0 15 -12 19 -23 7z"/>
<path d="M9144 8012 c2 -9 7 -17 13 -19 14 -5 12 25 -3 31 -7 3 -11 -2 -10
-12z"/>
<path d="M12890 8010 c0 -13 28 -25 38 -16 3 4 0 11 -8 16 -20 13 -30 12 -30
0z"/>
<path d="M12980 6674 c0 -8 5 -12 10 -9 6 4 8 11 5 16 -9 14 -15 11 -15 -7z"/>
<path d="M7190 6209 c0 -5 5 -7 10 -4 6 3 10 8 10 11 0 2 -4 4 -10 4 -5 0 -10
-5 -10 -11z"/>
<path d="M8160 5990 c0 -5 5 -10 11 -10 5 0 7 5 4 10 -3 6 -8 10 -11 10 -2 0
-4 -4 -4 -10z"/>
<path d="M5525 5950 c3 -5 8 -10 11 -10 2 0 4 5 4 10 0 6 -5 10 -11 10 -5 0
-7 -4 -4 -10z"/>
<path d="M12587 5734 c-10 -10 -9 -42 1 -48 19 -11 30 9 18 32 -7 12 -15 19
-19 16z"/>
<path d="M7765 5630 c-3 -5 -1 -10 4 -10 6 0 11 5 11 10 0 6 -2 10 -4 10 -3 0
-8 -4 -11 -10z"/>
<path d="M10892 5168 c-7 -7 -12 -18 -12 -25 0 -14 -8 -26 -45 -66 -12 -12
-24 -30 -28 -39 -3 -10 -12 -15 -19 -13 -15 6 -58 -29 -58 -46 0 -5 -13 -22
-29 -38 -16 -15 -32 -39 -36 -52 -4 -13 -16 -36 -26 -51 -11 -14 -19 -33 -19
-42 0 -8 -8 -30 -18 -48 -11 -18 -18 -41 -16 -51 1 -9 -1 -17 -5 -17 -4 0 -13
-16 -21 -35 -8 -19 -17 -35 -21 -35 -4 0 -10 -16 -13 -35 -5 -26 -12 -35 -26
-35 -11 0 -20 -7 -20 -15 0 -9 -10 -26 -22 -39 -13 -13 -24 -30 -26 -37 -2 -8
-8 -15 -13 -17 -5 -2 -9 -10 -9 -18 0 -8 -7 -14 -15 -14 -8 0 -15 5 -15 10 0
18 -24 10 -48 -14 -15 -17 -18 -26 -10 -28 19 -7 -14 -37 -37 -35 -12 2 -18
-6 -21 -27 -2 -17 -18 -45 -40 -67 -26 -27 -35 -44 -31 -58 4 -17 0 -21 -19
-21 -13 0 -24 5 -24 12 0 6 -10 2 -23 -10 -13 -12 -30 -22 -38 -22 -11 -1 -10
-4 3 -14 19 -14 14 -28 -7 -20 -7 3 -21 -5 -31 -18 -11 -13 -31 -31 -46 -41
-18 -11 -28 -26 -28 -42 0 -16 -10 -30 -29 -41 -17 -10 -28 -22 -25 -26 12
-20 -20 -38 -66 -38 -34 0 -52 -5 -64 -19 -10 -11 -27 -18 -38 -16 -16 3 -19
0 -15 -15 4 -16 0 -20 -19 -20 -13 0 -24 -4 -24 -9 0 -5 -11 -12 -25 -15 -14
-4 -28 -13 -31 -20 -3 -8 -14 -12 -25 -9 -11 3 -28 -2 -37 -11 -10 -8 -34 -21
-53 -27 -19 -7 -46 -20 -61 -31 -14 -10 -38 -18 -51 -18 -14 0 -29 -4 -32 -10
-3 -5 -13 -10 -21 -10 -9 0 -22 -7 -30 -15 -9 -8 -24 -15 -34 -15 -10 0 -22
-4 -25 -10 -3 -5 -17 -10 -30 -10 -13 0 -26 -4 -30 -9 -3 -5 -19 -8 -35 -6
-21 3 -30 0 -30 -10 0 -7 -13 -16 -30 -20 -16 -4 -30 -11 -30 -16 0 -5 -12 -9
-27 -9 -49 1 -89 -11 -118 -36 -15 -13 -31 -24 -34 -25 -21 -2 -45 -8 -59 -15
-9 -4 -25 -6 -35 -5 -9 1 -29 -6 -45 -16 -15 -11 -40 -20 -55 -21 -16 -1 -34
-5 -40 -9 -7 -4 -21 -8 -32 -9 -11 0 -34 -8 -52 -17 -36 -19 -79 -22 -88 -7
-11 17 -38 11 -65 -15 -29 -28 -66 -40 -75 -24 -4 5 -24 9 -47 9 -32 0 -39 -3
-34 -15 6 -17 -15 -20 -30 -5 -7 7 -17 3 -32 -10 -27 -26 -38 -25 -47 3 -7 21
-8 21 -12 2 -4 -21 -69 -56 -113 -60 -14 -2 -40 -8 -59 -13 -30 -10 -33 -10
-28 8 3 11 -1 21 -9 24 -8 3 -14 0 -14 -7 0 -9 -15 -13 -45 -13 -25 1 -45 4
-45 8 0 18 -19 6 -22 -13 -2 -11 -15 -28 -30 -37 -23 -14 -30 -14 -52 -2 -21
11 -28 11 -41 0 -12 -10 -19 -10 -27 -2 -7 7 -32 12 -55 12 -36 0 -43 3 -41
18 2 10 -3 17 -12 17 -8 0 -14 -5 -13 -12 1 -6 -5 -10 -15 -8 -9 2 -39 4 -66
4 -37 1 -47 4 -43 15 7 19 -25 27 -41 10 -7 -7 -12 -20 -12 -29 0 -21 -27 -19
-61 6 -18 12 -29 16 -29 8 0 -9 -4 -8 -15 1 -10 9 -15 9 -15 1 0 -6 -9 -11
-20 -11 -11 0 -20 6 -20 13 0 9 -3 8 -9 -2 -6 -10 -13 -10 -28 -2 -11 5 -23 7
-27 4 -3 -3 -6 -1 -6 5 0 7 -11 12 -25 12 -14 0 -25 -5 -25 -11 0 -7 -7 -8
-17 -4 -31 12 -73 14 -73 4 0 -6 -5 -7 -10 -4 -11 7 -92 18 -122 17 -10 -1
-18 3 -18 8 0 4 -17 10 -37 13 -74 11 -94 15 -106 25 -7 5 -20 8 -29 7 -10 -2
-18 0 -18 5 0 14 -60 17 -71 4 -6 -8 -18 -12 -28 -10 -43 8 -71 19 -71 27 0 5
-20 9 -44 9 -25 0 -48 5 -52 11 -4 8 -9 7 -15 -2 -6 -10 -11 -11 -16 -3 -5 6
-33 11 -64 12 -32 0 -68 4 -80 8 -13 5 -37 9 -54 10 -16 0 -37 4 -45 7 -8 4
-25 8 -37 10 -12 2 -26 6 -29 10 -4 4 -18 7 -30 7 -13 0 -25 4 -28 8 -2 4 -33
9 -67 10 -63 2 -89 13 -89 38 0 15 -31 19 -44 7 -16 -16 -55 -9 -60 10 -3 11
-9 16 -16 12 -6 -4 -21 2 -33 13 -20 18 -38 24 -109 39 -16 3 -28 12 -28 19 0
10 -13 14 -45 14 -25 0 -45 5 -45 10 0 6 -11 10 -24 10 -13 0 -26 6 -29 13 -3
9 -9 9 -25 0 -14 -8 -23 -9 -27 -3 -4 6 -11 7 -17 4 -6 -4 -19 4 -28 17 -15
19 -21 21 -34 10 -12 -10 -18 -9 -33 8 -9 12 -22 21 -29 21 -6 0 -17 11 -24
25 -10 19 -16 22 -27 13 -10 -8 -19 -6 -38 12 -14 13 -25 18 -25 12 0 -7 -9
-12 -20 -12 -11 0 -20 5 -20 10 0 6 -6 10 -14 10 -8 0 -17 8 -20 18 -5 14 -15
18 -45 16 -31 -1 -40 2 -44 17 -3 11 -14 19 -25 19 -12 0 -23 4 -26 9 -3 5
-29 7 -58 6 -50 -3 -54 -1 -78 31 -23 33 -67 64 -88 64 -6 0 -13 -11 -16 -25
-5 -18 -11 -23 -24 -18 -24 9 -33 26 -19 35 8 5 -2 21 -31 49 -23 23 -42 37
-42 30 0 -15 -55 -11 -55 4 -1 24 -26 54 -40 49 -11 -5 -15 1 -15 20 0 23 -2
25 -19 14 -16 -10 -23 -9 -39 5 -10 9 -22 14 -26 10 -5 -5 -6 3 -4 17 3 22 0
25 -27 24 -16 -1 -40 -5 -51 -9 -16 -5 -22 -2 -27 14 -3 14 -11 19 -26 16 -18
-3 -21 1 -21 26 0 33 -15 65 -44 91 -23 22 -36 22 -62 3 -21 -16 -48 -20 -40
-6 4 5 -6 22 -21 38 -16 16 -35 39 -43 51 -13 20 -78 41 -103 34 -5 -2 -11 6
-14 17 -3 10 -14 22 -26 25 -12 3 -18 8 -15 12 13 12 -23 37 -55 38 -22 1 -35
8 -43 24 -16 33 -65 83 -91 92 -12 5 -23 19 -25 32 -2 13 -11 24 -23 26 -11 2
-24 9 -30 15 -5 7 -23 20 -38 30 -15 10 -32 29 -37 43 -5 13 -21 29 -35 34
-15 6 -23 15 -20 21 4 5 -1 19 -11 30 -9 10 -22 29 -28 42 -8 16 -22 23 -48
25 -31 3 -37 7 -40 29 -3 26 -3 26 -22 8 -18 -18 -20 -17 -78 43 -56 58 -89
75 -103 53 -3 -6 26 -42 65 -82 38 -40 71 -79 71 -88 1 -9 2 -20 4 -26 1 -5 3
-16 3 -22 1 -7 8 -13 16 -13 17 0 30 -26 31 -61 1 -31 52 -79 84 -79 12 0 21
-4 21 -10 0 -5 8 -10 18 -10 10 0 19 -6 19 -13 0 -14 43 -77 53 -77 11 0 116
-105 123 -123 4 -9 15 -20 24 -24 10 -4 26 -15 35 -25 9 -11 22 -18 30 -16 17
4 68 -41 79 -70 5 -13 13 -21 17 -18 5 3 22 -8 37 -24 16 -17 34 -30 41 -30 6
0 15 -11 18 -24 6 -23 39 -43 60 -37 14 3 56 -20 89 -49 16 -14 33 -25 38 -25
6 0 23 -15 38 -33 16 -17 36 -32 45 -32 9 0 16 -3 16 -8 0 -4 10 -12 22 -17
13 -6 23 -17 23 -25 0 -17 32 -39 58 -40 9 0 17 -6 17 -13 0 -24 82 -83 100
-72 6 4 10 1 10 -4 0 -6 -4 -11 -10 -11 -5 0 -10 -4 -10 -10 0 -5 11 -10 25
-10 14 0 25 -4 25 -10 0 -5 11 -10 23 -10 16 0 28 -9 35 -25 l12 -26 29 22 30
22 36 -22 c20 -11 43 -21 51 -21 8 0 14 -4 14 -10 0 -5 7 -10 15 -10 8 0 15
-4 15 -10 0 -5 6 -9 12 -7 7 1 21 -16 32 -38 11 -21 21 -34 24 -27 5 17 67 15
82 -3 7 -9 19 -14 27 -11 18 7 56 -32 49 -50 -4 -11 5 -14 37 -15 73 -2 88 -6
101 -24 7 -10 18 -15 24 -11 7 4 12 2 12 -4 0 -14 46 -60 60 -60 5 0 10 9 10
20 0 11 5 20 11 20 6 0 9 -6 6 -14 -3 -8 3 -22 13 -31 19 -17 20 -16 30 11 6
16 17 32 23 36 16 10 27 -22 15 -46 -12 -23 9 -41 29 -24 10 8 13 6 13 -6 0
-18 25 -22 36 -5 4 7 11 2 18 -13 7 -12 18 -22 25 -20 7 1 19 -2 27 -9 8 -6
20 -9 28 -6 8 3 17 0 20 -8 2 -7 13 -11 23 -9 10 3 28 -4 41 -16 19 -18 33
-21 82 -18 45 2 61 -1 65 -11 4 -11 8 -12 17 -3 19 19 48 14 48 -7 0 -22 16
-36 24 -22 9 14 34 7 52 -15 15 -19 15 -18 11 4 -8 35 46 27 68 -11 10 -17 22
-26 31 -23 9 4 18 -3 23 -17 8 -19 10 -20 16 -5 9 22 31 13 39 -15 4 -17 8
-19 18 -9 13 13 88 17 88 5 0 -5 11 -16 24 -25 19 -14 29 -15 59 -6 31 10 44
25 51 61 3 17 20 5 21 -16 0 -14 6 -22 17 -22 10 0 27 -8 39 -19 12 -10 24
-14 28 -8 7 11 73 14 81 4 8 -12 58 -42 69 -42 6 0 8 6 5 13 -7 20 40 41 75
34 17 -4 45 -22 63 -41 27 -30 33 -32 46 -20 8 9 21 13 29 10 8 -3 25 1 39 10
15 10 24 12 24 5 0 -6 6 -11 14 -11 7 0 19 -6 26 -14 6 -8 18 -12 26 -9 9 3
22 -3 31 -16 12 -17 18 -20 29 -10 21 17 17 29 -11 29 -15 0 -25 6 -25 14 0
22 19 29 37 14 9 -7 24 -12 34 -10 14 2 17 -1 13 -12 -6 -17 31 -37 52 -29 6
2 14 -3 18 -12 3 -9 10 -13 16 -10 5 3 20 -1 32 -9 28 -20 38 -20 38 -1 0 8 9
16 20 16 23 2 29 3 53 13 9 5 23 4 30 -2 11 -9 63 -20 112 -24 11 -1 30 2 43
6 15 5 22 3 22 -6 0 -7 14 -19 31 -27 25 -11 35 -11 54 -1 20 11 22 16 14 32
-13 24 -6 33 18 23 10 -5 24 -9 32 -11 8 -1 17 -7 20 -12 9 -14 45 -30 57 -25
7 2 9 13 6 25 -5 19 -3 19 19 7 27 -15 132 -19 167 -7 14 5 31 4 43 -2 14 -8
19 -7 19 1 0 7 7 8 18 4 27 -11 62 -13 62 -4 0 5 6 9 14 9 8 0 16 4 18 10 2 5
24 10 51 11 26 1 47 6 47 10 0 4 25 7 55 8 31 0 61 4 67 7 7 4 24 9 38 10 14
1 33 4 43 8 9 3 24 8 33 11 8 3 13 9 10 14 -8 12 20 22 39 15 9 -4 15 0 15 9
0 10 8 13 25 9 18 -3 25 0 25 11 0 17 85 33 120 22 14 -4 20 -2 18 7 -2 9 8
13 29 13 17 0 35 3 39 8 4 4 20 7 36 7 21 0 31 6 38 25 8 21 14 24 42 18 18
-3 37 -10 43 -14 13 -12 65 -11 65 1 0 6 -5 10 -11 10 -5 0 -7 5 -4 11 4 6 10
8 13 5 3 -4 16 3 28 15 22 21 22 21 28 1 4 -11 12 -19 19 -17 7 1 27 6 45 10
18 4 35 12 38 16 3 5 16 9 29 9 13 0 30 8 37 18 7 10 21 18 31 19 33 1 37 3
37 18 0 9 9 15 24 15 14 0 27 4 30 9 3 5 22 8 42 7 22 -1 42 5 54 16 11 10 26
18 35 18 8 0 24 5 35 10 11 6 29 15 41 21 12 6 23 8 26 5 3 -3 12 1 19 9 8 8
21 12 29 9 8 -4 15 -1 15 6 0 6 8 9 19 5 10 -3 24 1 31 10 7 8 25 15 41 15 15
0 30 4 34 9 3 5 19 9 36 9 22 -1 37 6 50 23 10 13 19 20 19 16 0 -4 9 1 21 12
13 12 30 18 45 15 13 -2 24 0 24 6 0 5 7 10 15 10 8 0 15 6 15 14 0 8 9 18 20
21 11 4 18 11 14 16 -3 6 3 13 15 16 12 3 21 9 21 14 0 5 11 9 24 9 12 0 35
11 50 25 15 14 34 25 43 25 9 0 30 15 47 33 17 18 39 36 49 40 11 4 21 16 24
27 3 11 9 20 14 20 15 0 99 81 99 95 0 7 11 16 24 19 14 3 27 14 30 24 3 9 16
22 28 27 14 6 22 17 20 28 -2 13 4 17 29 17 17 0 37 7 43 14 6 8 18 16 26 18
16 3 61 62 58 75 -3 15 14 63 23 63 18 0 49 41 49 65 0 18 4 23 15 19 10 -4
15 0 15 11 0 19 75 102 99 110 16 5 41 49 41 70 0 7 8 19 18 29 12 10 18 28
17 46 -1 17 2 30 7 30 5 0 7 8 3 19 -3 10 1 24 10 31 8 7 15 21 15 31 0 10 4
21 10 24 15 9 42 73 38 87 -3 7 5 20 16 29 11 9 21 31 22 49 2 18 9 37 16 41
16 10 22 129 7 129 -6 0 -9 7 -5 15 7 18 -24 21 -42 3z"/>
<path d="M13135 4690 c-3 -5 -1 -10 4 -10 6 0 11 5 11 10 0 6 -2 10 -4 10 -3
0 -8 -4 -11 -10z"/>
<path d="M12560 4536 c0 -2 7 -9 15 -16 13 -11 14 -10 9 4 -5 14 -24 23 -24
12z"/>
<path d="M12305 4170 c-3 -5 3 -10 15 -10 12 0 18 5 15 10 -3 6 -10 10 -15 10
-5 0 -12 -4 -15 -10z"/>
<path d="M1605 4000 c-3 -5 -1 -10 4 -10 6 0 11 5 11 10 0 6 -2 10 -4 10 -3 0
-8 -4 -11 -10z"/>
<path d="M1727 3634 c-9 -10 4 -34 19 -34 8 0 14 4 14 9 0 12 -26 32 -33 25z"/>
<path d="M1771 3524 c-6 -14 -9 -30 -5 -35 9 -15 34 10 31 32 -5 30 -13 31
-26 3z"/>
<path d="M4720 3170 c-27 -9 -49 -24 -55 -38 -5 -12 -26 -28 -47 -37 -20 -8
-41 -22 -47 -32 -10 -21 -3 -73 10 -73 5 0 9 -6 9 -14 0 -10 14 -13 53 -12 28
1 62 -3 75 -10 12 -6 38 -9 57 -7 19 2 35 -1 35 -6 0 -5 17 -11 38 -15 20 -3
55 -8 77 -11 22 -4 49 -11 61 -16 11 -6 27 -9 35 -7 14 3 15 -7 4 -92 -3 -19
-6 -82 -7 -140 -2 -82 -6 -108 -19 -120 -11 -10 -14 -22 -9 -35 5 -12 2 -29
-7 -43 -8 -13 -12 -29 -10 -35 2 -7 0 -20 -5 -31 -6 -10 -11 -35 -13 -55 -5
-61 -22 -121 -39 -140 -9 -9 -16 -28 -16 -40 0 -13 -8 -35 -18 -49 -14 -20
-18 -44 -17 -96 1 -58 4 -71 23 -86 17 -14 29 -17 52 -10 20 6 30 5 30 -2 0
-6 6 -5 16 3 9 7 35 14 57 15 23 1 48 2 55 3 6 1 12 9 12 19 1 19 23 52 36 52
5 0 17 19 28 43 16 36 19 71 21 232 1 105 5 197 9 205 3 8 7 44 9 80 1 36 6
70 10 76 4 7 8 39 9 73 2 52 7 66 29 87 23 22 29 23 55 13 16 -6 53 -11 82
-11 28 0 52 -4 52 -8 0 -9 29 -7 68 5 17 6 22 15 22 41 0 33 15 72 34 85 4 4
3 10 -3 13 -6 4 -11 4 -11 0 0 -3 -7 0 -16 7 -9 7 -26 14 -38 15 -39 3 -65 16
-72 36 -3 11 -12 17 -20 14 -7 -3 -33 1 -56 8 -24 7 -48 11 -55 9 -6 -2 -14 1
-18 6 -3 6 -14 11 -24 11 -10 0 -32 7 -47 15 -16 8 -36 15 -45 15 -9 0 -30 7
-45 15 -16 8 -46 18 -66 21 -21 4 -38 11 -38 16 0 5 -6 8 -12 6 -7 -1 -31 2
-53 6 -22 5 -47 10 -55 11 -8 1 -35 8 -60 15 -61 19 -68 19 -120 0z"/>
<path d="M6584 3136 c0 -13 4 -22 9 -19 10 6 9 43 -2 43 -5 0 -8 -11 -7 -24z"/>
<path d="M8680 2928 c0 -10 -7 -18 -15 -18 -8 0 -15 5 -15 10 0 6 -9 10 -20
10 -11 0 -20 -4 -20 -9 0 -8 -32 -22 -55 -25 -5 -1 -13 -5 -16 -9 -3 -4 -16
-9 -27 -10 -12 -1 -22 -5 -22 -9 0 -4 -9 -8 -20 -8 -11 0 -20 -4 -20 -10 0 -5
-12 -10 -27 -10 -16 0 -41 -7 -57 -15 -16 -9 -52 -17 -80 -19 -28 -2 -56 -5
-62 -5 -19 -2 -90 -74 -76 -79 6 -2 12 -19 12 -38 0 -25 4 -34 16 -34 12 0 14
-5 9 -17 -13 -31 -11 -87 4 -105 8 -10 10 -18 5 -18 -5 0 -3 -4 4 -9 7 -4 13
-19 14 -32 0 -13 8 -40 16 -59 9 -19 17 -44 19 -55 2 -11 6 -27 10 -35 3 -8 7
-22 8 -30 0 -8 4 -25 8 -37 4 -12 10 -30 12 -40 2 -10 9 -31 16 -48 7 -16 13
-37 13 -45 1 -9 8 -27 17 -40 9 -14 16 -43 17 -65 2 -55 8 -78 27 -120 10 -19
15 -42 11 -50 -8 -23 4 -45 25 -45 18 0 18 -2 3 -34 -16 -32 -15 -34 7 -60 27
-31 33 -32 61 -6 21 19 59 23 74 7 11 -11 34 -8 34 4 0 21 29 39 62 39 18 0
43 7 55 15 19 13 23 13 37 0 16 -16 56 -21 56 -7 0 5 20 10 45 10 56 3 95 17
95 37 0 16 12 20 24 8 11 -12 40 -12 47 -1 5 7 16 6 38 -3 17 -8 31 -16 31
-19 0 -3 29 -5 64 -5 44 1 68 6 79 17 9 8 14 18 11 20 -2 3 5 13 16 23 11 10
20 23 20 30 0 22 -31 75 -51 85 -10 6 -19 21 -19 34 0 13 -9 31 -20 41 -17 15
-24 16 -45 7 -14 -6 -25 -16 -25 -22 0 -6 -34 -10 -84 -10 -48 0 -88 -5 -91
-10 -4 -6 -14 -10 -23 -9 -16 3 -98 -9 -132 -18 -35 -10 -96 -10 -107 -1 -7 5
-16 7 -21 4 -5 -3 -17 1 -28 8 -15 11 -24 11 -56 0 -36 -12 -38 -12 -63 18
-20 24 -23 33 -13 39 14 9 19 69 6 69 -4 0 -8 9 -8 20 0 11 -4 20 -10 20 -15
0 -12 33 5 66 19 37 50 53 103 54 23 0 42 5 42 10 0 6 23 10 50 10 28 0 50 4
50 9 0 9 31 23 55 26 23 3 65 25 65 35 0 5 14 10 32 10 29 0 30 1 15 18 -13
15 -14 20 -1 36 12 17 12 22 -2 37 -13 14 -32 18 -95 17 -44 0 -82 -5 -85 -10
-4 -6 -10 -5 -15 3 -6 10 -11 11 -16 3 -17 -23 -53 -30 -176 -34 -15 -1 -33 5
-41 12 -15 15 -31 58 -28 72 2 5 -9 6 -23 4 -14 -3 -27 -2 -29 1 -5 7 23 47
29 44 24 -13 22 3 -3 26 -28 28 -35 51 -19 67 4 4 48 7 97 6 57 -1 88 3 84 9
-3 6 12 8 41 6 50 -4 85 13 85 41 0 12 3 13 12 4 15 -15 64 -16 73 -2 3 6 15
10 26 10 10 0 19 4 19 10 0 5 8 17 19 27 26 26 35 92 14 115 -9 10 -24 18 -34
18 -10 0 -21 5 -24 10 -3 6 -17 10 -31 10 -13 0 -24 -4 -24 -10 0 -18 -18 -11
-23 9 -6 26 -47 24 -47 -1z"/>
<path d="M3530 2920 c0 -5 -11 -10 -24 -10 -14 0 -25 -7 -28 -17 -6 -28 2 -53
18 -53 8 0 14 -5 14 -11 0 -13 20 -33 43 -42 9 -3 17 -11 17 -17 0 -6 4 -8 10
-5 5 3 21 -5 35 -19 14 -15 30 -26 35 -26 4 0 36 -27 69 -60 34 -33 68 -60 76
-60 8 0 15 -4 15 -10 0 -5 7 -10 15 -10 8 0 15 -7 15 -15 0 -15 13 -19 63 -15
21 1 27 -3 27 -19 0 -22 26 -29 32 -9 3 9 20 7 63 -7 42 -13 60 -15 63 -7 2 7
10 12 18 12 8 0 14 6 14 14 0 8 5 16 11 18 8 3 7 14 -5 36 -16 32 -48 56 -59
45 -4 -3 -20 9 -36 26 -17 18 -32 31 -34 29 -2 -2 -18 14 -37 35 -18 21 -39
36 -46 33 -8 -3 -17 1 -21 8 -10 17 -53 31 -53 17 0 -7 -8 -7 -25 1 -14 6 -25
20 -25 30 0 10 -7 21 -15 24 -8 3 -17 14 -20 25 -4 11 -10 17 -15 14 -4 -3
-13 2 -20 10 -6 7 -18 11 -25 8 -8 -3 -21 2 -30 11 -14 13 -20 13 -55 1 -38
-13 -41 -13 -53 5 -13 21 -27 26 -27 10z"/>
<path d="M6110 2898 c0 -4 -12 -6 -26 -4 -15 3 -34 1 -44 -4 -9 -5 -28 -10
-43 -12 -14 -2 -29 -7 -33 -11 -4 -4 -15 -7 -25 -7 -16 0 -18 -8 -17 -55 1
-30 -3 -60 -9 -66 -6 -6 -9 -18 -6 -25 3 -8 0 -21 -7 -29 -8 -10 -9 -28 -4
-57 4 -24 7 -52 6 -63 -5 -61 -14 -99 -28 -112 -13 -14 -13 -17 2 -34 12 -14
14 -22 6 -32 -6 -7 -11 -30 -12 -52 0 -42 -6 -100 -10 -100 -1 0 -4 -19 -5
-43 -2 -24 -8 -49 -15 -57 -8 -9 -8 -15 0 -20 6 -3 7 -12 3 -18 -5 -7 -9 -53
-9 -104 -1 -50 -4 -99 -8 -108 -11 -30 4 -65 29 -65 13 0 27 -5 30 -10 4 -6
10 -8 15 -5 5 3 16 -8 25 -25 16 -31 45 -41 45 -16 0 8 9 18 20 21 11 3 20 13
20 21 0 8 6 14 13 14 13 0 37 45 37 71 0 9 12 29 26 44 21 23 25 34 19 59 -12
57 -12 101 1 133 8 20 9 35 3 38 -11 8 -12 55 0 74 5 8 17 11 32 6 64 -18 77
-27 95 -71 10 -24 23 -43 29 -42 5 1 32 -19 59 -46 34 -34 45 -51 36 -56 -9
-5 -9 -9 -1 -14 6 -4 11 -2 11 4 0 6 5 8 10 5 6 -3 10 -19 10 -36 0 -16 5 -29
11 -29 6 0 9 -6 6 -14 -4 -9 15 -24 59 -46 56 -29 64 -36 64 -62 0 -20 7 -32
24 -39 13 -6 29 -22 36 -34 9 -16 25 -25 55 -29 23 -4 51 -13 61 -21 46 -35
104 3 100 63 -2 26 4 39 26 57 28 23 28 24 10 54 -9 17 -25 31 -34 31 -11 0
-18 8 -18 20 0 11 -7 20 -15 20 -13 0 -125 105 -125 117 0 8 -42 40 -130 100
-47 32 -96 70 -110 84 -14 14 -33 28 -43 32 -27 10 -10 28 19 21 13 -3 24 -2
24 3 0 5 14 8 30 7 17 -1 33 2 36 7 3 5 16 9 29 9 13 0 27 5 30 10 3 6 15 10
26 10 10 0 19 6 19 14 0 7 6 19 13 25 20 16 41 90 39 138 -1 23 3 45 8 48 6 4
7 12 3 18 -4 6 -8 26 -8 43 -1 17 -4 35 -8 40 -3 6 -8 23 -11 38 -6 32 -44 96
-57 96 -5 0 -12 0 -15 -1 -4 0 -10 3 -13 8 -12 17 -52 33 -80 33 -16 0 -31 5
-33 12 -2 6 -18 11 -36 11 -18 0 -32 3 -32 7 0 3 -9 6 -20 7 -11 1 -20 -3 -20
-9 0 -6 -7 -7 -17 -3 -10 4 -36 9 -58 11 -22 2 -59 5 -82 7 -24 2 -43 0 -43
-5z m106 -151 c4 -3 15 -2 25 3 10 6 20 6 23 1 3 -5 21 -9 39 -9 39 0 121 -42
152 -78 18 -21 22 -37 20 -73 -2 -25 -6 -55 -10 -66 -9 -26 -69 -65 -100 -65
-13 0 -26 -4 -29 -9 -7 -10 -151 -6 -191 6 -22 7 -30 15 -29 31 1 12 -3 22 -7
22 -5 0 -7 28 -4 63 3 34 8 87 9 117 2 30 4 59 5 63 1 9 87 4 97 -6z"/>
<path d="M9959 2844 c-9 -8 -22 -17 -30 -18 -41 -8 -69 -19 -69 -27 0 -5 -9
-9 -20 -9 -11 0 -20 -4 -20 -9 0 -5 -8 -11 -17 -15 -37 -12 -98 -55 -101 -69
-2 -9 -9 -14 -17 -11 -7 3 -16 1 -20 -5 -3 -6 -15 -11 -25 -11 -10 0 -22 -9
-25 -21 -4 -12 -12 -18 -21 -15 -8 3 -14 1 -14 -4 0 -6 -6 -10 -14 -10 -7 0
-16 -8 -19 -18 -4 -17 -55 -38 -79 -33 -5 0 -8 -3 -8 -9 0 -5 -6 -10 -14 -10
-45 0 -4 -65 46 -72 15 -2 22 -9 20 -20 -2 -15 5 -18 47 -18 44 0 54 4 85 36
19 19 40 37 48 38 37 8 71 28 75 46 4 15 11 19 24 15 12 -4 21 -1 25 9 3 9 15
16 26 16 27 0 56 16 108 62 65 57 67 58 93 58 16 0 28 9 35 25 6 14 16 25 21
25 15 0 22 30 11 51 -6 10 -21 19 -35 19 -13 0 -26 6 -28 13 -4 9 -8 9 -15 -2
-7 -10 -14 -10 -30 -2 -26 14 -25 14 -43 -5z"/>
<path d="M7336 2771 c-29 -11 -41 -12 -43 -4 -3 9 -12 9 -31 2 -15 -6 -56 -12
-92 -14 -82 -4 -100 -11 -100 -41 0 -13 -4 -24 -10 -24 -5 0 -10 -9 -10 -20 0
-11 4 -20 9 -20 8 0 16 -45 21 -120 1 -8 7 -25 13 -38 7 -15 7 -26 2 -30 -14
-10 -17 -39 -5 -47 5 -3 10 -22 10 -41 0 -19 4 -34 10 -34 32 0 57 -102 29
-122 -11 -7 -11 -11 -1 -15 6 -2 12 -10 12 -17 0 -6 9 -18 20 -26 11 -8 20
-22 20 -31 0 -8 3 -19 8 -23 9 -10 10 -50 0 -56 -4 -3 -9 -34 -11 -67 -2 -41
-9 -68 -20 -81 -13 -14 -14 -21 -4 -31 9 -9 9 -14 -3 -22 -12 -8 -10 -9 7 -4
16 4 21 2 19 -11 -1 -9 -11 -23 -20 -30 -17 -12 -17 -13 3 -26 12 -7 21 -18
21 -25 0 -26 37 -74 70 -90 27 -13 66 -17 175 -18 77 0 153 2 168 7 19 5 40 2
63 -10 26 -12 37 -13 42 -5 8 12 24 12 54 -1 9 -4 25 -3 36 3 11 6 29 9 40 6
24 -4 40 12 45 45 3 19 10 24 37 25 18 1 38 9 45 18 7 9 17 17 24 17 10 0 12
12 14 68 1 44 -13 54 -62 46 -25 -4 -53 -8 -61 -9 -8 -1 -23 -6 -33 -10 -9 -4
-23 -3 -30 3 -8 7 -20 6 -37 -3 -17 -9 -30 -10 -43 -4 -9 6 -22 7 -28 3 -6 -3
-68 -6 -137 -5 -141 2 -167 2 -179 0 -25 -4 -33 4 -33 34 0 17 0 46 0 64 0 18
-4 34 -8 37 -5 3 -7 19 -6 35 1 17 -2 31 -7 31 -5 0 -9 14 -9 30 0 26 4 30 28
30 16 0 37 -9 47 -20 27 -30 120 -22 145 12 3 4 25 6 49 5 35 -2 49 2 67 20
12 12 24 20 27 17 3 -3 15 5 28 18 38 38 30 108 -12 108 -20 0 -26 24 -9 35
17 10 11 25 -9 25 -11 0 -21 5 -23 11 -5 15 -111 15 -116 0 -2 -6 -8 -9 -12
-6 -5 3 -26 -1 -47 -10 -50 -21 -103 -29 -103 -16 0 6 -10 10 -22 8 -17 -1
-23 4 -24 20 -1 13 -6 28 -11 35 -5 7 -9 37 -8 66 1 28 -2 52 -7 52 -5 0 -8
19 -6 43 3 37 6 42 28 43 14 0 31 -4 38 -9 7 -6 17 -5 26 2 8 6 18 11 22 9 5
-1 27 1 49 6 29 6 42 4 50 -6 15 -22 52 -28 72 -12 10 7 14 14 10 14 -5 0 -1
8 8 17 16 16 18 15 36 -8 l19 -24 0 23 c0 12 5 22 10 22 6 0 10 -4 10 -9 0 -5
12 -8 26 -8 23 0 25 3 21 27 -4 18 0 31 12 42 24 20 17 64 -12 72 -17 4 -18 8
-8 20 17 20 6 35 -19 29 -11 -3 -20 0 -20 6 0 15 -63 14 -78 -1 -9 -9 -12 -9
-12 1 0 10 -3 11 -13 2 -14 -11 -87 -13 -87 -2 0 13 -127 7 -164 -8z"/>
<path d="M8856 2741 c-3 -5 1 -11 9 -14 9 -4 12 -1 8 9 -6 16 -10 17 -17 5z"/>
<path d="M11695 2730 c-3 -5 -1 -10 4 -10 6 0 11 5 11 10 0 6 -2 10 -4 10 -3
0 -8 -4 -11 -10z"/>
<path d="M11975 2680 c-4 -6 3 -10 14 -10 25 0 27 6 6 13 -8 4 -17 2 -20 -3z"/>
<path d="M11920 2621 c0 -12 5 -21 10 -21 6 0 10 6 10 14 0 8 -4 18 -10 21 -5
3 -10 -3 -10 -14z"/>
<path d="M12212 2484 c-10 -11 -10 -18 0 -33 15 -24 44 -33 57 -17 19 23 15
37 -14 50 -25 11 -33 11 -43 0z"/>
<path d="M9410 1289 c0 -5 5 -7 10 -4 6 3 10 8 10 11 0 2 -4 4 -10 4 -5 0 -10
-5 -10 -11z"/>
<path d="M9230 1240 c0 -5 5 -10 10 -10 6 0 10 5 10 10 0 6 -4 10 -10 10 -5 0
-10 -4 -10 -10z"/>
<path d="M6755 1030 c-3 -5 1 -10 9 -10 8 0 18 5 21 10 3 6 -1 10 -9 10 -8 0
-18 -4 -21 -10z"/>
</g>
</svg>
